<?xml version="1.0" encoding="UTF-8"?>
<svg id="Layer_1" xmlns="http://www.w3.org/2000/svg" viewBox="0 0 270.4 375.2">

    <path class="cls-1"
        d="M130.8,2s0,.1,0,0c.7-.6,1.6-1.2,2.2-2,0,0,0-.1,0,0-.8,.5-1.5,1.3-2.2,2h0Z" />
    <path class="cls-1"
        d="M138.8,3.1c.9,.6,2.1-.2,2.3-1.1,0,0,0-.2-.1-.1-.7,.5-1.1,1.5-2.1,1.1,0,0,0,0,0,0h0Z" />
    <g>
        <path class="cls-1"
            d="M200,161.1c-10.3,20.1-31,32.4-52.3,36.8-24,5-52.5-1.7-69-21.5-8.8-10.5-12.8-24.3-9.5-37.7,2.5-10.2,5.6-18.9,5.2-29.6-.4-10.2-2.3-20.3-1.1-30.5,1.8-14.6,11.2-20.9,22.5-28.4,.2-.1,0-.5-.2-.4-10.1,2.6-18.8,10.8-23.2,20-5,10.5-3.7,22.3-3.3,33.6,.3,8.7-.3,16.7-2.1,25.2-1.3,6-2.5,12.2-2.6,18.4,0,11.1,4.5,24.4,11.5,33.1,16.1,20.1,43.4,24.2,67.4,20.3,22.3-3.6,48.8-15.9,59-37.9,.8-1.7-1.6-3.1-2.5-1.5h0Z" />
        <path class="cls-1"
            d="M115.2,130.7c-4-4.8-12.1-.5-13.1,4.8-1.2,6.1,4.8,12.3,11.1,10.9,.3,0,.4-.5,.2-.7-1.8-1.4-4.1-1.3-6-2.4-2.2-1.2-3.5-3.5-3.5-6.1,0-2.5,1.4-4.7,3.6-5.7,2.4-1.1,4.8-.6,7.2,0,.5,.1,.8-.4,.5-.8h0Z" />
        <path class="cls-1"
            d="M119.7,144.3c-.3-1-1-1.9-1.8-2.6-.7-.7-2.1,0-1.7,1,.3,1,.7,2.1,1.5,2.7,.9,.7,2.3,0,2-1.1h0Z" />
        <path class="cls-1"
            d="M131.4,157.6c-.1-.6-.6-1.1-1.1-1.3,.4-.3,.8-.5,1.2-.8,0,.7,0,1.4-.1,2.1h0Zm-19,5.4c-.2-.5-.4-1.3-.6-2.2,.7,3.4,2.4,6.4,4.6,9.2,.1,.2,.3,.3,.4,.4-2.6-1.4-3.4-4.6-4.4-7.3h0Zm6.3,7.2s0,0,0,0c.2,.4,.6,.6,1,.8-1.1,0-2-.2-2.8-.6,.6,.3,1.2,.1,1.8-.2h0Zm14.9-20.2c-8,8.4-18.4,7.8-27.5,1.6-.5-.3-1.2,.4-.9,.9,.3,.3,.5,.6,.8,.9,0,.1,0,.3,0,.4,1.9,1.7,1.9,6.7,2.7,9.1,.7,2.4,1.6,5.1,2.9,7.3,2.2,3.6,5.8,4.8,9.9,4,9.7-1.8,13-12.1,12.4-20.8,.5-.5,1-1,1.5-1.6,1.1-1.3-.7-3.2-1.9-1.9h0Z" />
        <path class="cls-1"
            d="M149.5,121.5c-2.2,.5-12.4,6.9-8.2,9.9,.3,.2,.8,0,.8-.3,0,0,0-.2,0-.3,0-.1,0-.3-.2-.3,0,0-.1,0-.2,0,.2-.2,1.1-1,1.2-1.1,.8-.8,1.4-1.9,2.2-2.7,2.2-2,5.2-3,8.1-2.7,4.4,.4,6.6,3.5,9.2,6.7,.7,.8,1.7-.1,1.6-.9-1-6.2-8.9-9.6-14.6-8.2h0Z" />
        <path class="cls-1"
            d="M87.9,117.5c-4.7,.6-10.8,6.3-10.6,11.2,0,.4,.5,.7,.8,.3,2.3-3,4.3-6.6,8-8.1,6.3-2.4,8.6,3.3,11.5,7.4,.6,.9,2.1,.6,2.1-.6-.2-5.3-6.6-11-11.9-10.3h0Z" />
        <path class="cls-1"
            d="M166.2,104.7c-1.1-4.1-7.4-7.4-11.1-8.6-4.4-1.4-8.5-.4-12,2.5-.8,.7,.2,2,1.1,1.5,3.9-2.3,8.7-1.2,12.4,.9,2.8,1.6,4.9,4.7,8.1,5.2,.9,.1,1.8-.5,1.5-1.5h0Z" />
        <path class="cls-1"
            d="M94.7,94.9c-3.7-1-7.8-.9-11.2,.9-1.9,1-5.3,4-4.4,6.6,.9,2.5,2.9-.2,3.7-1.1,3.2-3.5,7.7-3.3,11.9-4.4,1-.3,1-1.8,0-2h0Z" />
        <path class="cls-1"
            d="M101.5,48.5c.3-.5-.3-1.1-.8-.8-4.4,3.3-6.9,8.8-7.5,14.2-.3,2.7,.2,8.9,4.4,7.1,.4-.2,.3-.7,0-.9-3-2.1-1.3-8-.4-10.9,1-3.2,2.7-5.9,4.3-8.8h0Z" />
        <path class="cls-1"
            d="M104,53.9c-1.9,.6-2.2,2.4-2.4,4.2-.5,3.7-1,8.1,.4,11.7,.2,.5,1.1,.7,1.3,0,.4-2.4,.2-4.7,.1-7.1,0-1.8-.7-6.7,1.1-7.6,.7-.3,.2-1.4-.5-1.2h0Z" />
        <path class="cls-1"
            d="M188.9,92.6c-8.3-5.6-16.9-10.4-23.7-17.9-6.9-7.7-11.4-17.7-10.8-28.1,0-.4-.5-.3-.6,0-2.3,21.6,16.5,38.7,34.6,46.8,.5,.2,.9-.4,.5-.8h0Z" />
        <path class="cls-1"
            d="M195.5,108.5c-5-10.1-16.7-15.1-23.6-23.6-.2-.2-.6,0-.4,.3,6.7,8.9,16.3,15.2,23.7,23.5,.2,.2,.4,0,.3-.2h0Z" />
        <path class="cls-1"
            d="M184.6,99.8c-.5-.4-1.2,.3-.7,.7,4.5,4.1,9.2,8.7,9.9,15,0,.8,1.3,.8,1.2,0-.4-6.8-5.5-11.5-10.5-15.6h0Z" />
        <path class="cls-1"
            d="M193.9,117.7c-.5-.5-1.2,.2-.8,.8,1.1,1.3,1.7,2.8,1.8,4.5,0,1.3-.3,2.5-.4,3.7,0,.3,.4,.5,.6,.3,2.3-2.6,.8-7-1.2-9.3h0Z" />
        <path class="cls-1"
            d="M211,132.2c-4.1-2.8-9.8-1.7-12.3,2.8-.1,.2,0,.5,.3,.4,1.7-.6,3.2-1.9,4.9-2.3,3.6-1,6.8,1.2,8.5,4.1,2.2,3.8,1.9,8.6,0,12.4-1.6,3.3-4.3,6-7.4,7.9-3,1.9-5,1.8-8.4,.9-1.5-.4-2.7-.8-4.2-.9-.8,0-.9,1-.4,1.4,5.3,3.5,10.2,3.7,15.4,.1,4.7-3.1,8.2-7.9,8.9-13.6,.6-5-1.1-10.4-5.4-13.3h0Z" />
        <path class="cls-1"
            d="M140.1,16.1c-.2-.6-.9-.8-1.4-.4-4.1,4.1-5.3,9.4-5.8,15-2.1-4.8-4.1-9.6-6.4-14.3-.3-.7-1.4-.2-1.2,.5,1.3,5.7,2.3,11.5,3.5,17.2-1-1-2.5-.9-4-.7-4.4,.7-8.9,2.4-13,4.1-4.7,2-15,5.5-14.1,12.2,0,.4,.6,.5,.7,0,1.7-5.5,8-7.9,12.8-10,2.7-1.2,5.4-2.2,8.2-3.1,2.4-.8,7.1-3,9.4-1.2,0,0,.2,0,.3,0,.1,.6,.3,1.3,.4,1.9,.1,.5,.8,.3,.7-.2-.8-4.8-1.7-9.6-2.6-14.4,1.7,4.1,3.4,8.1,5.1,12.2,.4,.9,1.6,.3,1.7-.5,.2-5.8,.6-11.9,4.4-16.5,1.2,5.6,.6,10.6,.2,16.3,0,.8,1,.8,1.3,.2,2.3-5.8,1.4-12.6-.2-18.4h0Z" />
        <path class="cls-1"
            d="M219,93c-.7-11.8-2.3-24.1-10.1-33.4-7.8-9.3-20.2-16.2-31.2-20.9-11.5-4.9-25.7-6.7-37.6-2.1-.7,.3-.4,1.1,.3,1,13.1-2,25.2-1.9,37.5,3.7,9.6,4.4,20.1,10.4,27.4,18,8.3,8.8,10.2,20.7,11,32.3,.7,10.7,.6,21.9-6.6,30.5-.6,.8,.3,1.7,1.1,1.1,8.7-7.2,8.8-19.8,8.2-30.2h0Z" />
        <path class="cls-1"
            d="M207.3,82.1c-.2-.5-1-.3-.9,.2,1.9,6.5,2.8,13.1,2.3,19.8-.5,6.9-2.8,12.8-4.6,19.4-.2,.6,.7,1,1,.4,7.5-10.9,6.6-28.1,2.1-39.8h0Z" />
        <path class="cls-1"
            d="M202.6,97.8c-.2-.7-1.2-.4-1.1,.3,1.3,5.7,1,11.3,1.4,17.1,0,.4,.5,.4,.6,0,1.4-5.6,.4-11.9-.9-17.4h0Z" />
        <path class="cls-1"
            d="M217.7,100.2c-.3-.6-1.2,0-.9,.5,5.3,10.3-4.9,21.1-7.4,30.8-.2,.8,.9,1.2,1.3,.5,3.4-5.1,6-11.9,7.9-17.7,1.5-4.8,1.7-9.7-.9-14.1h0Z" />
        <path class="cls-1"
            d="M139.3,57.2c-1.4,3.4-3.1,7.1-6.3,9.2-2.4,1.5-4.1-.3-4.7-2.5-.4-1.6,.1-4.1,.2-5.8,0-.9-1.2-.9-1.5-.2-1.6,4-3.7,7.8-6.5,11.1-1.1,1.4-2.4,2.7-3.7,3.8-1.6,1.4-10.6,7-8.9-1,.1-.6-.8-.9-1-.3-1.7,5.6,4.4,6.9,8.3,4.5,5-3.1,8.8-8.2,11.4-13.5-.2,3.5,.4,7.1,4.5,6.5,5.1-.8,8.9-7,9.1-11.8,0-.5-.7-.5-.8-.1h0Z" />
        <path class="cls-1"
            d="M145.3,64.3c-2.9,.6-3.1-10.1-3.1-11.6,0-.7-.9-.6-1,0-.4,3.6-.5,7.9,1,11.3,.6,1.5,2.6,2.9,3.7,1,.2-.4-.2-.8-.6-.7h0Z" />
        <path class="cls-1"
            d="M152.3,65.8c-1.9-1.7-3.7-3-4.7-5.5-1.1-2.9-1.1-6.1-.9-9.1,0-.6-.8-.5-.9,0-.3,3.6-.8,7.2,.7,10.6,1,2.2,2.9,4.7,5.5,4.7,.4,0,.6-.5,.3-.7h0Z" />
        <path class="cls-1"
            d="M89,58.7c-2.7,3.1-3.3,9.3,.2,12,.3,.2,.8-.2,.7-.5-.6-1.8-1.4-3.3-1.5-5.2-.2-2.1,.4-3.9,1.3-5.8,.2-.4-.3-.9-.7-.5h0Z" />
        <path class="cls-1"
            d="M80.7,68.5c-.5-.3-1.1-.2-1.5-.8-.3-.5-1.1,0-.8,.5,.5,.7,1.5,1.5,2.3,.8,.2-.1,0-.4,0-.5h0Z" />
        <path class="cls-1"
            d="M118.4,207c-6.5,0-13,1.9-19.5,2.4-6.9,.6-13.8,.7-20.7,.5-7-.3-14-.9-20.8-2.8-6-1.7-11.7-4.5-17.5-6.9-.8-.3-1.2,.9-.5,1.3,11.8,7.6,23.9,10.9,37.9,11.6,7.3,.4,14.5,.2,21.7-.7,6.5-.8,13.8-1.3,19.8-4.2,.6-.3,.3-1.2-.3-1.2h0Z" />
        <path class="cls-1"
            d="M90.4,242.7c-7.4-1.3-15.2-.6-22.6-1.7-7.2-1.1-14.3-2.9-21-5.6-3.9-1.5-7.8-3.3-11.4-5.4-1.5-.9-3.7-1.8-4.8-3.1-1.6-2-1.1-5.1-.8-7.3,1.3-7.8,5.5-12.9,9.3-19.4,.2-.4-.2-.9-.7-.7-6.2,4-9.7,12.6-10.9,19.5-.5,2.9-1.1,6.4,.6,9,1.9,2.8,5.9,4.6,8.9,6.1,8.1,4.3,16.8,7.2,25.8,9,8.5,1.7,19.2,3.7,27.7,1.8,1.1-.2,1.1-2,0-2.2h0Z" />
        <path class="cls-1"
            d="M239.8,191.9c-1.9-3.4-4.8-11.1-9.3-11.9-2.5-.5-5,1.3-7.1,2.3-4.2,2-8.5,3.9-12.8,5.6-15.6,6.1-31.5,8.9-47.6,13.1-.5,.1-.4,.9,.1,.9,12,0,24.3-3.4,35.6-7,5.6-1.8,11-3.8,16.4-6,2.9-1.2,5.8-2.5,8.7-3.9,2.8-1.3,4.9-3.2,8.3-.6,1.1,.8,1.8,2.9,2.5,4,1.6,2.7,3.1,5.5,4.5,8.3,1,2.1,2.8,5.3,1.6,7.5-.6,1.1-2.5,2.1-3.5,2.8-4.8,3.7-9.8,7.1-15.2,9.9-11.2,6.1-22.8,9.1-35,12-1.3,.3-1,2.4,.3,2.3,13.8-1.5,27.9-7.2,39.8-14.2,3-1.8,6-3.6,8.8-5.7,2.3-1.6,5.9-3.7,7.5-6.1,2.6-3.9-1.9-10-3.7-13.3h0Z" />
        <path class="cls-1"
            d="M93,235.6c-.2-.7-1.1-.4-1.1,.2-1,8.6-2.6,16.6-4.8,25-1.7,6.5-4.2,14.1-2.9,20.9,.2,1.1,2.1,1.1,2.3,0,.8-4,.8-8.2,1.6-12.2,.8-4.1,1.9-8.1,2.9-12.2,1.7-6.9,3.5-14.4,2-21.5h0Z" />
        <path class="cls-1"
            d="M198.2,270.7c-.6-5-1.4-10-2.3-14.9-.9-5.1-2.1-10.2-3.7-15.2-1.8-5.6-4.6-10.7-6.2-16.3-.2-.6-1.3-.5-1.2,.2,1.1,8.4,4.6,16.3,6.5,24.5,1,4.4,1.9,8.9,2.6,13.4,.6,4,2.5,9.3,1.2,13.2-.2,.7,.6,1.3,1.2,.9,2.2-1.4,2.1-3.4,1.8-5.9h0Z" />
        <path class="cls-1"
            d="M91.2,355.7c-19.4-2.5-34.6-17.6-41.9-35.1-4.5-10.6-3.8-22.6,4.2-31.5,8.1-8.9,20.3-10.3,31.3-6.6,1.1,.4,1.9-1.5,.8-2-21.7-10.3-46.1,10-41.5,33.1,4.3,22,24.5,42.2,46.8,44.9,1.6,.2,2-2.6,.4-2.8h0Z" />
        <path class="cls-1"
            d="M244,318.7c-2.8,.1-2.4-18.2-2.5-20.4-.2-4.8-.3-9.8-2.1-14.2-3.3-7.9-11.7-11.5-19.8-12.4-22.1-2.3-41.2,14.3-54.7,29.8-.6,.7,.3,1.7,1.1,1.1,15.9-14.2,35.2-34.6,59.1-27,5.8,1.9,10.5,5.5,12.2,11.5,1.6,5.3,1.1,11.5,1.3,17,.2,3.9-1.7,18,5.4,17.6,1.9-.1,1.9-3,0-2.9h0Z" />
        <path class="cls-1"
            d="M198.4,326.9c-7.2,3.9-13.7,8-21.7,10.4-8.1,2.4-16.4,3-24.8,3.3-16,.5-32.5,1.6-48-3.1-.4-.1-.8,.6-.3,.8,1.9,.9,3.8,1.6,5.8,2.2,1-.2,2.2,0,2.9,.8,13.4,3.3,28.1,1.9,41.6,1.6,15.3-.3,34.1-3.3,45.4-14.8,.6-.6-.1-1.5-.9-1.1h0Z" />
        <path class="cls-1"
            d="M258.1,327.2c-.5-2.3-2.6-3.8-4.6-4.7-1.3-.6-2.7-.8-4.1-1.3-2.1-.7-3.7-1.8-5.7-2.8-.5-.3-1.5,0-1.3,.8,.6,4,5,4.1,8.2,5.2,11.1,3.7-3.5,13.2-8.3,15.8-5.5,2.9-13.2,7-19.5,7.3-.7,0-1.2,0-1.8-.1-3.8-10.8,14.3-14.5,20.6-18.3,.6-.3,.4-1.4-.4-1.3-7.6,.8-26.7,8.8-21.8,19.1-1.7-.8-2.8-2.4-4.3-4-.7-.7-1.2-1.2-1.8-1.5,0-.2,0-.5-.2-.8l-.7-1c-.1-.2-.4-.3-.6-.4-10.5-10.4-5.3-24.9-3.3-37.7,.1-.7-1-1.4-1.3-.5-5.8,12.9-8.1,31.1,3.7,41.4,.2,.1,.3,.2,.5,.3,2.4,1.7,3.3,4.8,5.8,6.4,2.2,1.4,5,1.5,7.5,1.1,7.6-1.2,16.2-5.4,22.6-9.4,3.9-2.5,12.1-7.9,10.9-13.5h0Z" />
        <path class="cls-1"
            d="M107.4,341.6s0,0,.1,0c.4-.6,1.1-1.1,1.8-1.3-.1-.2-.3-.3-.5-.4-3.3-1.4-5.5-6.7-7.3-9.5-1.9-3-3.9-5.9-5.8-8.9-1.3-2-2.5-4.3-4.2-6-1.9-2-4.6-2.9-6.5-5-.5-.6-1.6,.2-1.1,.9,1.6,2.3,3.9,3.6,5.7,5.8,2.6,3.2,4.6,7.1,6.8,10.6,2.6,4.1,5.2,10.9,9.6,13.8,.4-.1,.9-.2,1.4,0h0Z" />
        <path class="cls-1"
            d="M108,297.9c-3.9-3-7.8-5.9-11.8-8.8-3.8-2.8-7.7-6.1-12.1-7.9-.6-.2-.8,.6-.5,.9,2.9,3.4,7.1,6.1,10.6,8.8,4,3.1,8.1,6.2,12.1,9.2,1.3,.9,2.9-1.2,1.7-2.2h0Z" />
        <path class="cls-1"
            d="M147.5,322.8c-.7-4.8-1.5-10.7-5.2-14.1-.6-.5-1.5,.1-1.1,.8,2.8,4.9,3.8,10.8,4.4,16.3,.4,4.3,0,8.8,.8,13.1,0,.5,.7,.4,.9,0,1.9-5,1.1-11,.3-16.1h0Z" />
        <path class="cls-1"
            d="M165.7,200.1c-4.5,7.9-12.4,12.9-21.2,14.7-4.5,1-9.3,1.1-13.8,.3-5.6-1-9.2-3.7-13.5-7.2-.5-.4-1.4,0-1.1,.7,3.7,9.4,18.4,10.4,26.8,9.2,10.4-1.5,19.9-7.1,25.1-16.3,.9-1.5-1.5-2.9-2.3-1.4h0Z" />
        <path class="cls-1"
            d="M37.6,200.1c-3.5-3.4-3.6-17.2-10.1-17.3-5.9-.1-2.3,10.6-.7,14.9-4.2-1.4-7.2-4.5-11.1-6.7-2-1.1-4.9-2.5-7-.9-1.7,1.3-1.5,3.1-.5,5-1.2-.2-2.2,.1-3,1.1-1.7,2.2-.8,4.5,1,6.7-2.9-1-5.5-.8-6.1,2.2-.7,3.3,2.4,6,6.1,8-2.6,0-4.5,.9-3.5,3.8,1,2.7,5.6,3.1,7.8,3.7,6.2,1.6,12.3,3.2,18.5,4.7,1.5,.4,2.1-1.9,.6-2.3-5.6-1.3-11.2-2.6-16.8-3.8-1-.2-7.2-1-7.5-2-.6-2.2,4.5-1.8,5.3-1.6,1.5,.3,2.9,.7,4.4,1.1,1.2,.3,1.7-1.5,.5-1.9-2.5-.8-11.7-3.1-12.2-6.4-1-6.9,5.6-1.9,6.9-1.2,2,1.1,4,2.3,6,3.4,1,.6,1.9-.9,.9-1.6-2.1-1.5-4.3-2.9-6.4-4.5-.7-.5-1.4-1.1-2-1.6-1.9-1.3-1.7-3.1,.5-5.3,.3,0,.5,0,.8,.1,2.8,3.2,6.9,6.3,8.2,7.4,.9,.8,2-.4,1.3-1.3-1.2-1.5-4.8-5.5-8.2-7.5-.2-.3-.3-.5-.3-.6,1.3-1.1,2.6-2.2,3.9-3.3,.6,.4,1.3,.8,1.9,1.2,3.6,2.5,6.8,5.1,11.1,6,.6,.1,1.2-.4,1-1-1.1-3-2.1-6.1-2.6-9.4-.1-.9-.2-1.9-.3-2.8,2.1-1,3.4-.8,4,.6,.9,.9,1.3,3.1,1.7,4.2,1.2,3.8,1.9,7.1,5,9.8,.7,.6,1.7-.4,1.1-1h0Z" />
        <path class="cls-1"
            d="M270.2,181.8c0-.5-.7-.7-1.1-.6-2.3,.4-4.4,1.1-6.5,1.9,3.3-2.9,6.5-6.7,4.1-9-1.2-1.2-3-.9-4.9,0,2.1-2.5,3.2-5,.8-6.6-1.8-1.3-3.9-.2-5.5,.9-1.7,1.2-3.1,2.8-4.7,4.3-1,.9-5.5,6.1-6.6,6.1-2.5-.2-.6-10.6-1-12.5-.4-1.7-1.1-2.9-2.9-2.8-2.2,0-3,2.1-3.8,3.8-1.8,4-1.9,12.4-5.7,14.9-.7,.5,0,1.5,.7,1.1,4.6-2.4,3.3-8.3,5.7-12.3,.3-2.2,1.8-3.2,4.5-2.8v1.7c.4,2.3-.9,4.3-1.2,6.5-.2,1.5-.3,2.8,.9,3.9,2.8,2.6,6.1-2.1,7.9-3.7,1.5-1.3,2.9-2.7,4.4-4,1.8-1.6,3.3-4.8,4.7-1.8,1.2,2.5-.5,3-2.3,4.8-1.4,1.5-2.8,3-4.2,4.5-.6,.7,.3,1.5,1,1,1.8-1.4,3.5-2.6,5.4-3.7,1.9-1.2,2.5-2.5,3.7,0,1.2,2.5-.3,2.7-2.2,4.5-1.5,1.4-3,2.8-4.4,4.2-.7,.6,.2,1.7,.9,1.2,1.7-.9,11.7-6.4,10.3-1.5-1,3.5-7.9,4.4-10.9,5.7-.8,.3-.4,1.7,.4,1.6,.8,0,7.8-1.4,8-.9,1.8,3.1-6.3,5.2-7.4,5.6-3.6,1.5-10.8,2.6-13.2,5.3,.6-.6-.2-1.7-.9-1.2-.1,0-.3,.2-.4,.3-.3,.2-.5,.5-.4,.9,.9,4.1,12.4-2.2,14.5-3,4-1.6,12.4-3.4,10.7-9.3-.1-.4-.5-.7-.9-.7-1,.1-1.9,.2-2.9,.4,3.6-1.6,6.4-3.8,5.6-8.5h0Z" />
        <path class="cls-1"
            d="M107.1,298.2c-6.1-4.5-11.7-9.7-17.8-14.2-4-2.9-9.8-6.1-14.9-5.1-.1,0-.1,.2,0,.2,3.4,2.1,6.8,3.5,9.9,6.1,2.7,2.3,5.4,4.6,8.1,6.8,4.1,3.3,9.1,6.7,14.5,6.4,.2,0,.2-.2,0-.3h0Z" />
        <path class="cls-1"
            d="M92.3,326c-3.6-5.3-7.6-10.2-12.1-14.7-.3-.3-.6,.1-.4,.4,4.3,5,8.4,10.1,12,15.5,3.4,5,5.8,10.7,9.2,15.7,.2,.2,.5,0,.5-.2-1.7-5.9-5.6-11.6-9.1-16.7h0Z" />
        <path class="cls-1"
            d="M93,332.9c-.2-.3-.6,.1-.4,.4,1.4,1.8,2.7,3.6,3.8,5.5,1,1.7,1.7,3.7,2.8,5.3,.1,.2,.4,0,.4-.2-.7-4-4-8.1-6.6-11.1h0Z" />
        <path class="cls-1"
            d="M203.4,321.8c-1.5,1.5-2.8,3.2-4.4,4.6-.9,.8-4.3,4.5-5.4,4.1-.6-.2-.9,.7-.4,1,1.6,1,4.5-1.2,5.8-2.1,2.3-1.6,4.8-3.8,6.2-6.2,.6-1.1-.8-2.2-1.7-1.3h0Z" />
        <path class="cls-1"
            d="M215.4,338.2c-3.8-5-5.5-9.4-5.8-15.8-.3-6.5,.5-13,2.1-19.4,.1-.5-.6-.7-.8-.2-2.5,7.1-3.3,14.9-2.6,22.3,.5,4.9,1.8,11.1,6.6,13.4,.3,.1,.6-.2,.4-.4h0Z" />
        <path class="cls-1"
            d="M214.7,330.6c-.4-1.1-.7-2.3-.8-3.5,0-.4-.6-.4-.6,0,0,2.1,.5,5.2,2.2,6.6,.2,.1,.5,0,.4-.2-.3-1-.9-1.9-1.3-2.9h0Z" />
        <path class="cls-1"
            d="M98.6,287.8c-3.6-3.4-6.7-6.9-8-11.9-1.3-5-.2-10.2-.2-15.3,0-.1-.2-.1-.2,0-1.7,9.9-1.9,21.8,8.1,27.5,.2,.1,.4-.1,.2-.3h0Z" />
        <path class="cls-1"
            d="M102.9,287.7c-4.4-5.1-8.2-9.8-9.4-16.6,0-.2-.5-.2-.4,0,.7,6.4,3.7,13.6,9.6,16.8,.2,.1,.4-.1,.2-.3h0Z" />
        <path class="cls-1"
            d="M184.9,242.2c0-.1-.2,0-.2,0,2.4,6.9,4.3,14.7,4.5,22,.2,4.1-.7,7.3-3,10.8-1.5,2.2-2.9,4.2-3.7,6.8,0,.2,.2,.3,.3,.1,3.1-6.2,7.7-9.5,7.6-17,0-7.9-2.8-15.6-5.6-22.8h0Z" />
        <path class="cls-1"
            d="M185.1,267.4c-1.8,6.8-5.4,12.1-8.6,18.1-.1,.3,.2,.5,.4,.3,5.1-4.4,7.6-11.9,8.7-18.3,0-.3-.4-.5-.5-.1h0Z" />
        <path class="cls-1"
            d="M235.8,200.6c-1.9,4.2-7.1,7-10.8,9.6-3,2.1-6.1,4.1-9.3,5.8-8.2,4.3-16.3,6.2-25.4,7.2-.2,0-.3,.4,0,.4,9.2,1.3,18.8-2.7,26.7-7.1,4.6-2.6,8.9-5.5,13.1-8.6,2.6-1.9,6.1-3.6,6.3-7.1,0-.3-.4-.4-.5-.1h0Z" />
        <path class="cls-1"
            d="M233.2,200.5c-1.3,.9-2.4,2.1-3.6,3.1-1.5,1.3-3.1,2.4-4.7,3.4-.3,.2,0,.6,.3,.5,1.5-1,3-2,4.4-3.1,1.3-1.1,2.9-2.2,3.8-3.7,0-.1,0-.3-.2-.2h0Z" />
        <path class="cls-1"
            d="M125.5,221.1c-2.2-1-4.3-1.6-6-3.5-1.8-1.9-2.8-4.4-4-6.7-.1-.2-.6,0-.5,.2,1.4,3.9,5.1,11.5,10.4,10.3,.2,0,.2-.3,0-.4h0Z" />
        <path class="cls-1"
            d="M78.3,345.1c-8.6-5.4-16.1-11-21.5-19.8-5.6-9-9.3-21.4-4-31.4,0-.2-.2-.3-.3-.2-5.8,9.3-2.6,21.2,2.3,30.3,4.9,9.1,13.4,17.9,23.5,21.2,.1,0,.2-.1,0-.2h0Z" />
        <path class="cls-1"
            d="M246.3,335.7c-4,1.7-7.7,3.8-11.9,5.3-4.1,1.5-8.4,2.2-12.5,3.4-.4,.1-.3,.8,.1,.7,8.1-.2,18-4.1,24.5-8.9,.3-.2,.1-.7-.2-.6h0Z" />
        <path class="cls-1"
            d="M230.4,282.3c-.2-.5-.9,0-.7,.4,4.9,11.4,5.8,22.5,5.9,34.7,0,.3,.5,.4,.6,0,2.6-11.7-.6-24.7-5.8-35.2h0Z" />
        <path class="cls-1"
            d="M194.6,325.1c-.2,.1-.4,.2-.6,.3,0,0,0,0,0,0,.2-.1,.4-.2,.6-.3,0,0,0,0,0,0h0Z" />
        <path class="cls-1"
            d="M37.5,205.9c-3.8,5.4-8.8,16.1-4.5,22.4,.2,.3,.7,.1,.6-.3-1.9-7.5,.9-15.3,4.9-21.6,.4-.6-.6-1.2-1-.6h0Z" />
        <path class="cls-1"
            d="M37.1,218.2c0-.5-.7-.7-.8-.2-.8,2.9-1.4,7.2,.3,9.9,.2,.3,.7,.2,.7-.2,0-1.5-.5-2.9-.6-4.4,0-1.7,0-3.4,.4-5.1h0Z" />
        <path class="cls-1"
            d="M209,143.1c-.3-2.3-2-3.9-4.4-3.7-2.6,.2-4.2,2.5-5.5,4.6-.2,.4,.3,.8,.6,.5,1.2-1.4,2.5-3,4.4-3.3,3.5-.6,3.6,3.3,2.5,5.6-1.8,3.8-5.4,4.7-9,5.9-.3,.1-.2,.5,0,.6,5.5,.6,12.1-4.1,11.3-10h0Z" />
        <path class="cls-1"
            d="M177.2,78.8c-12.8-2.9-13-22.6-12.7-32.6,0-.4-.6-.4-.7,0-1.2,10.6-.7,31.1,13.2,33.4,.5,0,.7-.7,.2-.8h0Z" />
        <path class="cls-1"
            d="M181.4,78.7c-1.9-3.3-4.2-6.2-5.8-9.6-1.8-3.8-3.1-7.7-4-11.8,0-.3-.6-.2-.6,0,1.1,7.5,4.1,16.5,9.8,21.7,.3,.3,.8,0,.6-.4h0Z" />
        <path class="cls-1"
            d="M81.6,61c-4.6,5.6-7.3,13.4-6.6,20.7-1.1,4-1.9,8.3-.4,12.1,.2,.4,.7,.3,.7-.1,.4-5.1,.8-9.8,2.3-14.7,1.3-4.2,2.9-8.3,3.7-12.7,0-.5-.6-.9-.9-.4-1.5,3.1-2.7,6.5-3.7,9.9,.9-5.1,2.5-9.7,5.3-14.7,.1-.2-.2-.5-.4-.3h0Z" />
        <path class="cls-1"
            d="M192.5,73c-3.8-4.7-6.5-9.1-7-15.3,0-.4-.7-.4-.7,0,.2,5.8,2.4,12.2,7.1,15.8,.4,.3,.9-.2,.6-.6h0Z" />
        <path class="cls-1"
            d="M194.8,71.2c0,.3,0,.6,.1,.9,0,.2,.2,0,.3,0,0-.3,0-.6,0-.9,0-.3-.4-.3-.4,0h0Z" />
        <path class="cls-1"
            d="M159.8,128.9c-3.3-5.1-14.3-3.6-16.6,1.8,0,.1,0,.3,.2,.2,2.7-1.5,4.9-3.2,8.1-3.4,3-.2,5.2,1.2,7.9,1.9,.3,0,.5-.2,.4-.5h0Z" />
        <path class="cls-1"
            d="M78.7,129.2c-.2,.4,.3,.7,.6,.4,2.1-2.8,5.2-5,8.8-4.8,3.1,.2,5.2,2,7.6,3.8,.2,.2,.6-.1,.5-.4-3.1-7.7-14.6-5.5-17.5,1.1h0Z" />
        <path class="cls-1"
            d="M100.2,294.7c-.9-1.7-1.9-3.8-4.1-3.7-.4,0-.7,.7-.2,.9,2.1,1,3,4.3,4,6.2,1,2,1.9,4.6,3.6,6.2,.5,.5,1.3,0,1.2-.7-.5-3-2.9-6.3-4.4-8.9h0Z" />
        <path class="cls-1"
            d="M90.9,305c-.3-1.4-2.4-.8-2.1,.6,.6,2.7,1.1,5.4,1.3,8.1-2.4-1.7-4.6-3.6-6.7-5.7-.8-.8-2.2,.2-1.6,1.2,1.7,2.6,4.4,6.1,7.6,6.9,.1,0,.2,0,.3,0,.4,.3,.8,.5,1.1,.8,.7,.4,1.7-.1,1.6-.9-.2-3.7-.7-7.2-1.5-10.8h0Z" />
        <path class="cls-1"
            d="M208.7,301.1c-.3-.3-.8-.4-1.2-.2,0,0-.2,0-.3,.1-.5,.3-.5,1-.2,1.4,0,1.6-1.7,4.3-2.2,5.6-.4,1-.8,2-1.2,3-1-2.5-1.6-5-2-7.6-.2-1.1-2-.8-2,.3,0,2.2,.5,4.3,1.4,6.2,.5,1.6,1,3.1,1.7,4.6,.5,1,1.7,.5,2-.3,1.1-2.7,2.3-5.4,3.3-8.2,.6-1.6,2.1-3.5,.6-5h0Z" />
        <path class="cls-1"
            d="M102.9,337.5c-.9,0-1,1.1-.4,1.6,1.7,1.2,3.7,1.7,5.4,2.9,2.7,2,3.3,5.1,3.3,8.3,0,5.2-1.6,10.4-4.6,14.7-1.6,2.3-3.7,4.5-6.1,6-1.8,1.1-4.1,2.1-6.3,1.6-3-.7-3.4-3.5-3.3-6.2,.2-3.9,1.1-6.5-1.5-10.1-.6-.9-1.9-.1-1.5,.9,1.3,3.1,1.3,5.4,.6,8.6-.3,1.4-.7,2.5-.4,4,.4,2.2,2.1,4,4.2,4.9,6,2.5,12.2-2.7,15.7-7.1,6.4-8.2,10.6-29.3-5.2-29.9h0Z" />
        <path class="cls-1"
            d="M106.1,341.4c-.3-.5-1.1,0-.8,.5,2.3,4.9,2.1,9.7,.5,14.8,0,.3,.3,.4,.5,.2,2.9-4.7,2.5-10.8-.1-15.5h0Z" />
        <path class="cls-1" d="M4.8,250.7c0,0,0,0,0,0,0,0,0,0,0,0h0Z" />
        <path class="cls-1"
            d="M124.4,202.6c-.2,1.7-.7,3.3-1.6,4.7-.9,1.4-2.1,2.3-3.1,3.5-.3,.4,0,1.2,.5,1,3.5-1.3,5.5-5.7,5.8-9.1,0-1-1.5-1.1-1.6,0h0Z" />
        <path class="cls-1"
            d="M169.9,202.8c-2.6-.8-3.9-2.8-3.9-5.5,0-.9-1.4-1.2-1.6-.3-.9,3.4,1.9,7.1,5.3,7.6,1.1,.2,1.3-1.6,.3-1.9h0Z" />
    </g>
</svg>