<svg id="Layer_1" data-name="Layer 1" xmlns="http://www.w3.org/2000/svg" viewBox="0 0 270.54 375.4"><path d="M130.8,2h0A13.73,13.73,0,0,0,133,0h0a13.73,13.73,0,0,0-2.2,2Z" transform="translate(0 0.04)" fill="#fff"/><path d="M138.8,3.1A1.62,1.62,0,0,0,141.1,2s0-.2-.1-.1c-.7.5-1.1,1.5-2.1,1.1h0Z" transform="translate(0 0.04)" fill="#fff"/><path d="M200,161.1c-10.3,20.1-31,32.4-52.3,36.8-24,5-52.5-1.7-69-21.5-8.8-10.5-12.8-24.3-9.5-37.7,2.5-10.2,5.6-18.9,5.2-29.6-.4-10.2-2.3-20.3-1.1-30.5C75.1,64,84.5,57.7,95.8,50.2c.2-.1,0-.5-.2-.4-10.1,2.6-18.8,10.8-23.2,20-5,10.5-3.7,22.3-3.3,33.6A101.45,101.45,0,0,1,67,128.6,94.87,94.87,0,0,0,64.4,147c0,11.1,4.5,24.4,11.5,33.1,16.1,20.1,43.4,24.2,67.4,20.3,22.3-3.6,48.8-15.9,59-37.9.8-1.7-1.6-3.1-2.5-1.5h0Z" transform="translate(0 0.04)" fill="#fff"/><path d="M115.2,130.7c-4-4.8-12.1-.5-13.1,4.8-1.2,6.1,4.8,12.3,11.1,10.9.3,0,.4-.5.2-.7-1.8-1.4-4.1-1.3-6-2.4a6.82,6.82,0,0,1-3.5-6.1,6.19,6.19,0,0,1,3.6-5.7c2.4-1.1,4.8-.6,7.2,0a.49.49,0,0,0,.5-.8Z" transform="translate(0 0.04)" fill="#fff"/><path d="M119.7,144.3a5.84,5.84,0,0,0-1.8-2.6c-.7-.7-2.1,0-1.7,1a5.15,5.15,0,0,0,1.5,2.7c.9.7,2.3,0,2-1.1Z" transform="translate(0 0.04)" fill="#fff"/><path d="M131.4,157.6a1.82,1.82,0,0,0-1.1-1.3c.4-.3.8-.5,1.2-.8a14.77,14.77,0,0,1-.1,2.1Zm-19,5.4a16.22,16.22,0,0,1-.6-2.2,22.21,22.21,0,0,0,4.6,9.2c.1.2.3.3.4.4-2.6-1.4-3.4-4.6-4.4-7.3h0Zm6.3,7.2h0a2,2,0,0,0,1,.8,6.09,6.09,0,0,1-2.8-.6,1.94,1.94,0,0,0,1.8-.2ZM133.6,150c-8,8.4-18.4,7.8-27.5,1.6-.5-.3-1.2.4-.9.9.3.3.5.6.8.9v.4c1.9,1.7,1.9,6.7,2.7,9.1a32.69,32.69,0,0,0,2.9,7.3c2.2,3.6,5.8,4.8,9.9,4,9.7-1.8,13-12.1,12.4-20.8.5-.5,1-1,1.5-1.6,1.1-1.3-.7-3.2-1.9-1.9h0Z" transform="translate(0 0.04)" fill="#fff"/><path d="M149.5,121.5c-2.2.5-12.4,6.9-8.2,9.9.3.2.8,0,.8-.3v-.3c0-.1,0-.3-.2-.3h-.2c.2-.2,1.1-1,1.2-1.1.8-.8,1.4-1.9,2.2-2.7a10.56,10.56,0,0,1,8.1-2.7c4.4.4,6.6,3.5,9.2,6.7.7.8,1.7-.1,1.6-.9-1-6.2-8.9-9.6-14.6-8.2h0Z" transform="translate(0 0.04)" fill="#fff"/><path d="M87.9,117.5c-4.7.6-10.8,6.3-10.6,11.2a.45.45,0,0,0,.8.3c2.3-3,4.3-6.6,8-8.1,6.3-2.4,8.6,3.3,11.5,7.4a1.14,1.14,0,0,0,2.1-.6c-.2-5.3-6.6-11-11.9-10.3h0Z" transform="translate(0 0.04)" fill="#fff"/><path d="M166.2,104.7c-1.1-4.1-7.4-7.4-11.1-8.6a12.22,12.22,0,0,0-12,2.5c-.8.7.2,2,1.1,1.5,3.9-2.3,8.7-1.2,12.4.9,2.8,1.6,4.9,4.7,8.1,5.2.9.1,1.8-.5,1.5-1.5Z" transform="translate(0 0.04)" fill="#fff"/><path d="M94.7,94.9a15.48,15.48,0,0,0-11.2.9c-1.9,1-5.3,4-4.4,6.6s2.9-.2,3.7-1.1c3.2-3.5,7.7-3.3,11.9-4.4a1,1,0,0,0,0-2Z" transform="translate(0 0.04)" fill="#fff"/><path d="M101.5,48.5a.59.59,0,0,0-.8-.8c-4.4,3.3-6.9,8.8-7.5,14.2-.3,2.7.2,8.9,4.4,7.1a.52.52,0,0,0,0-.9c-3-2.1-1.3-8-.4-10.9,1-3.2,2.7-5.9,4.3-8.8h0Z" transform="translate(0 0.04)" fill="#fff"/><path d="M104,53.9c-1.9.6-2.2,2.4-2.4,4.2-.5,3.7-1,8.1.4,11.7.2.5,1.1.7,1.3,0a33.71,33.71,0,0,0,.1-7.1c0-1.8-.7-6.7,1.1-7.6.7-.3.2-1.4-.5-1.2Z" transform="translate(0 0.04)" fill="#fff"/><path d="M188.9,92.6C180.6,87,172,82.2,165.2,74.7,158.3,67,153.8,57,154.4,46.6c0-.4-.5-.3-.6,0-2.3,21.6,16.5,38.7,34.6,46.8a.48.48,0,0,0,.5-.8Z" transform="translate(0 0.04)" fill="#fff"/><path d="M195.5,108.5c-5-10.1-16.7-15.1-23.6-23.6-.2-.2-.6,0-.4.3,6.7,8.9,16.3,15.2,23.7,23.5.2.2.4,0,.3-.2Z" transform="translate(0 0.04)" fill="#fff"/><path d="M184.6,99.8c-.5-.4-1.2.3-.7.7,4.5,4.1,9.2,8.7,9.9,15,0,.8,1.3.8,1.2,0-.4-6.8-5.5-11.5-10.5-15.6h0Z" transform="translate(0 0.04)" fill="#fff"/><path d="M193.9,117.7c-.5-.5-1.2.2-.8.8a7.47,7.47,0,0,1,1.8,4.5c0,1.3-.3,2.5-.4,3.7,0,.3.4.5.6.3,2.3-2.6.8-7-1.2-9.3Z" transform="translate(0 0.04)" fill="#fff"/><path d="M211,132.2a8.5,8.5,0,0,0-12.3,2.8c-.1.2,0,.5.3.4,1.7-.6,3.2-1.9,4.9-2.3,3.6-1,6.8,1.2,8.5,4.1a13.27,13.27,0,0,1,0,12.4,19.42,19.42,0,0,1-7.4,7.9c-3,1.9-5,1.8-8.4.9a21,21,0,0,0-4.2-.9c-.8,0-.9,1-.4,1.4,5.3,3.5,10.2,3.7,15.4.1a19.35,19.35,0,0,0,8.9-13.6c.6-5-1.1-10.4-5.4-13.3h0Z" transform="translate(0 0.04)" fill="#fff"/><path d="M140.1,16.1a.87.87,0,0,0-1.4-.4c-4.1,4.1-5.3,9.4-5.8,15-2.1-4.8-4.1-9.6-6.4-14.3-.3-.7-1.4-.2-1.2.5,1.3,5.7,2.3,11.5,3.5,17.2-1-1-2.5-.9-4-.7a59.53,59.53,0,0,0-13,4.1c-4.7,2-15,5.5-14.1,12.2a.35.35,0,0,0,.7,0c1.7-5.5,8-7.9,12.8-10a81.13,81.13,0,0,1,8.2-3.1c2.4-.8,7.1-3,9.4-1.2h.3c.1.6.3,1.3.4,1.9s.8.3.7-.2c-.8-4.8-1.7-9.6-2.6-14.4,1.7,4.1,3.4,8.1,5.1,12.2.4.9,1.6.3,1.7-.5.2-5.8.6-11.9,4.4-16.5,1.2,5.6.6,10.6.2,16.3,0,.8,1,.8,1.3.2,2.3-5.8,1.4-12.6-.2-18.4h0Z" transform="translate(0 0.04)" fill="#fff"/><path d="M219,93c-.7-11.8-2.3-24.1-10.1-33.4s-20.2-16.2-31.2-20.9c-11.5-4.9-25.7-6.7-37.6-2.1-.7.3-.4,1.1.3,1,13.1-2,25.2-1.9,37.5,3.7,9.6,4.4,20.1,10.4,27.4,18,8.3,8.8,10.2,20.7,11,32.3.7,10.7.6,21.9-6.6,30.5a.78.78,0,0,0,1.1,1.1c8.7-7.2,8.8-19.8,8.2-30.2Z" transform="translate(0 0.04)" fill="#fff"/><path d="M207.3,82.1c-.2-.5-1-.3-.9.2a55.47,55.47,0,0,1,2.3,19.8c-.5,6.9-2.8,12.8-4.6,19.4a.54.54,0,0,0,1,.4c7.5-10.9,6.6-28.1,2.1-39.8h.1Z" transform="translate(0 0.04)" fill="#fff"/><path d="M202.6,97.8c-.2-.7-1.2-.4-1.1.3,1.3,5.7,1,11.3,1.4,17.1,0,.4.5.4.6,0,1.4-5.6.4-11.9-.9-17.4Z" transform="translate(0 0.04)" fill="#fff"/><path d="M217.7,100.2c-.3-.6-1.2,0-.9.5,5.3,10.3-4.9,21.1-7.4,30.8a.7.7,0,0,0,1.3.5c3.4-5.1,6-11.9,7.9-17.7,1.5-4.8,1.7-9.7-.9-14.1Z" transform="translate(0 0.04)" fill="#fff"/><path d="M139.3,57.2c-1.4,3.4-3.1,7.1-6.3,9.2-2.4,1.5-4.1-.3-4.7-2.5-.4-1.6.1-4.1.2-5.8,0-.9-1.2-.9-1.5-.2A40,40,0,0,1,120.5,69a26.66,26.66,0,0,1-3.7,3.8c-1.6,1.4-10.6,7-8.9-1,.1-.6-.8-.9-1-.3-1.7,5.6,4.4,6.9,8.3,4.5,5-3.1,8.8-8.2,11.4-13.5-.2,3.5.4,7.1,4.5,6.5,5.1-.8,8.9-7,9.1-11.8a.41.41,0,0,0-.8-.1h0Z" transform="translate(0 0.04)" fill="#fff"/><path d="M145.3,64.3c-2.9.6-3.1-10.1-3.1-11.6,0-.7-.9-.6-1,0-.4,3.6-.5,7.9,1,11.3.6,1.5,2.6,2.9,3.7,1a.51.51,0,0,0-.6-.7Z" transform="translate(0 0.04)" fill="#fff"/><path d="M152.3,65.8c-1.9-1.7-3.7-3-4.7-5.5a21.63,21.63,0,0,1-.9-9.1c0-.6-.8-.5-.9,0-.3,3.6-.8,7.2.7,10.6,1,2.2,2.9,4.7,5.5,4.7.4,0,.6-.5.3-.7Z" transform="translate(0 0.04)" fill="#fff"/><path d="M89,58.7c-2.7,3.1-3.3,9.3.2,12,.3.2.8-.2.7-.5-.6-1.8-1.4-3.3-1.5-5.2a10.75,10.75,0,0,1,1.3-5.8.43.43,0,0,0-.7-.5Z" transform="translate(0 0.04)" fill="#fff"/><path d="M80.7,68.5c-.5-.3-1.1-.2-1.5-.8s-1.1,0-.8.5c.5.7,1.5,1.5,2.3.8.2-.1,0-.4,0-.5Z" transform="translate(0 0.04)" fill="#fff"/><path d="M118.4,207c-6.5,0-13,1.9-19.5,2.4a178.84,178.84,0,0,1-20.7.5,91.36,91.36,0,0,1-20.8-2.8c-6-1.7-11.7-4.5-17.5-6.9-.8-.3-1.2.9-.5,1.3,11.8,7.6,23.9,10.9,37.9,11.6a120.87,120.87,0,0,0,21.7-.7c6.5-.8,13.8-1.3,19.8-4.2a.64.64,0,0,0-.3-1.2h-.1Z" transform="translate(0 0.04)" fill="#fff"/><path d="M90.4,242.7c-7.4-1.3-15.2-.6-22.6-1.7a94.33,94.33,0,0,1-21-5.6A79.21,79.21,0,0,1,35.4,230c-1.5-.9-3.7-1.8-4.8-3.1-1.6-2-1.1-5.1-.8-7.3,1.3-7.8,5.5-12.9,9.3-19.4a.53.53,0,0,0-.7-.7c-6.2,4-9.7,12.6-10.9,19.5-.5,2.9-1.1,6.4.6,9,1.9,2.8,5.9,4.6,8.9,6.1a94.17,94.17,0,0,0,25.8,9c8.5,1.7,19.2,3.7,27.7,1.8a1.15,1.15,0,0,0,0-2.2h-.1Z" transform="translate(0 0.04)" fill="#fff"/><path d="M239.8,191.9c-1.9-3.4-4.8-11.1-9.3-11.9-2.5-.5-5,1.3-7.1,2.3-4.2,2-8.5,3.9-12.8,5.6C195,194,179.1,196.8,163,201a.46.46,0,0,0,.1.9c12,0,24.3-3.4,35.6-7,5.6-1.8,11-3.8,16.4-6q4.35-1.8,8.7-3.9c2.8-1.3,4.9-3.2,8.3-.6,1.1.8,1.8,2.9,2.5,4,1.6,2.7,3.1,5.5,4.5,8.3,1,2.1,2.8,5.3,1.6,7.5-.6,1.1-2.5,2.1-3.5,2.8a101.61,101.61,0,0,1-15.2,9.9c-11.2,6.1-22.8,9.1-35,12a1.17,1.17,0,0,0,.3,2.3c13.8-1.5,27.9-7.2,39.8-14.2a101.71,101.71,0,0,0,8.8-5.7c2.3-1.6,5.9-3.7,7.5-6.1,2.6-3.9-1.9-10-3.7-13.3h.1Z" transform="translate(0 0.04)" fill="#fff"/><path d="M93,235.6c-.2-.7-1.1-.4-1.1.2a177.84,177.84,0,0,1-4.8,25c-1.7,6.5-4.2,14.1-2.9,20.9a1.21,1.21,0,0,0,2.3,0c.8-4,.8-8.2,1.6-12.2s1.9-8.1,2.9-12.2c1.7-6.9,3.5-14.4,2-21.5h0Z" transform="translate(0 0.04)" fill="#fff"/><path d="M198.2,270.7c-.6-5-1.4-10-2.3-14.9a116,116,0,0,0-3.7-15.2c-1.8-5.6-4.6-10.7-6.2-16.3-.2-.6-1.3-.5-1.2.2,1.1,8.4,4.6,16.3,6.5,24.5,1,4.4,1.9,8.9,2.6,13.4.6,4,2.5,9.3,1.2,13.2a.81.81,0,0,0,1.2.9c2.2-1.4,2.1-3.4,1.8-5.9h0Z" transform="translate(0 0.04)" fill="#fff"/><path d="M91.2,355.7c-19.4-2.5-34.6-17.6-41.9-35.1-4.5-10.6-3.8-22.6,4.2-31.5s20.3-10.3,31.3-6.6c1.1.4,1.9-1.5.8-2-21.7-10.3-46.1,10-41.5,33.1,4.3,22,24.5,42.2,46.8,44.9,1.6.2,2-2.6.4-2.8h-.1Z" transform="translate(0 0.04)" fill="#fff"/><path d="M244,318.7c-2.8.1-2.4-18.2-2.5-20.4-.2-4.8-.3-9.8-2.1-14.2-3.3-7.9-11.7-11.5-19.8-12.4-22.1-2.3-41.2,14.3-54.7,29.8a.78.78,0,0,0,1.1,1.1c15.9-14.2,35.2-34.6,59.1-27,5.8,1.9,10.5,5.5,12.2,11.5,1.6,5.3,1.1,11.5,1.3,17,.2,3.9-1.7,18,5.4,17.6,1.9-.1,1.9-3,0-2.9h0Z" transform="translate(0 0.04)" fill="#fff"/><path d="M198.4,326.9c-7.2,3.9-13.7,8-21.7,10.4s-16.4,3-24.8,3.3c-16,.5-32.5,1.6-48-3.1-.4-.1-.8.6-.3.8a40.65,40.65,0,0,0,5.8,2.2,3.09,3.09,0,0,1,2.9.8c13.4,3.3,28.1,1.9,41.6,1.6,15.3-.3,34.1-3.3,45.4-14.8a.71.71,0,0,0-.9-1.1h0Z" transform="translate(0 0.04)" fill="#fff"/><path d="M258.1,327.2c-.5-2.3-2.6-3.8-4.6-4.7-1.3-.6-2.7-.8-4.1-1.3a43,43,0,0,1-5.7-2.8c-.5-.3-1.5,0-1.3.8.6,4,5,4.1,8.2,5.2,11.1,3.7-3.5,13.2-8.3,15.8-5.5,2.9-13.2,7-19.5,7.3a10.28,10.28,0,0,1-1.8-.1c-3.8-10.8,14.3-14.5,20.6-18.3a.7.7,0,0,0-.4-1.3c-7.6.8-26.7,8.8-21.8,19.1-1.7-.8-2.8-2.4-4.3-4a7.48,7.48,0,0,0-1.8-1.5,1.34,1.34,0,0,0-.2-.8l-.7-1c-.1-.2-.4-.3-.6-.4-10.5-10.4-5.3-24.9-3.3-37.7.1-.7-1-1.4-1.3-.5-5.8,12.9-8.1,31.1,3.7,41.4.2.1.3.2.5.3,2.4,1.7,3.3,4.8,5.8,6.4a10.84,10.84,0,0,0,7.5,1.1c7.6-1.2,16.2-5.4,22.6-9.4,3.9-2.5,12.1-7.9,10.9-13.5h0Z" transform="translate(0 0.04)" fill="#fff"/><path d="M107.4,341.6h.1a3.38,3.38,0,0,1,1.8-1.3,1,1,0,0,0-.5-.4c-3.3-1.4-5.5-6.7-7.3-9.5-1.9-3-3.9-5.9-5.8-8.9a35.87,35.87,0,0,0-4.2-6c-1.9-2-4.6-2.9-6.5-5-.5-.6-1.6.2-1.1.9,1.6,2.3,3.9,3.6,5.7,5.8,2.6,3.2,4.6,7.1,6.8,10.6,2.6,4.1,5.2,10.9,9.6,13.8a2.23,2.23,0,0,1,1.4,0Z" transform="translate(0 0.04)" fill="#fff"/><path d="M108,297.9c-3.9-3-7.8-5.9-11.8-8.8-3.8-2.8-7.7-6.1-12.1-7.9-.6-.2-.8.6-.5.9,2.9,3.4,7.1,6.1,10.6,8.8,4,3.1,8.1,6.2,12.1,9.2,1.3.9,2.9-1.2,1.7-2.2Z" transform="translate(0 0.04)" fill="#fff"/><path d="M147.5,322.8c-.7-4.8-1.5-10.7-5.2-14.1-.6-.5-1.5.1-1.1.8,2.8,4.9,3.8,10.8,4.4,16.3.4,4.3,0,8.8.8,13.1,0,.5.7.4.9,0,1.9-5,1.1-11,.3-16.1h-.1Z" transform="translate(0 0.04)" fill="#fff"/><path d="M165.7,200.1c-4.5,7.9-12.4,12.9-21.2,14.7a35.63,35.63,0,0,1-13.8.3c-5.6-1-9.2-3.7-13.5-7.2-.5-.4-1.4,0-1.1.7,3.7,9.4,18.4,10.4,26.8,9.2,10.4-1.5,19.9-7.1,25.1-16.3.9-1.5-1.5-2.9-2.3-1.4Z" transform="translate(0 0.04)" fill="#fff"/><path d="M37.6,200.1c-3.5-3.4-3.6-17.2-10.1-17.3-5.9-.1-2.3,10.6-.7,14.9-4.2-1.4-7.2-4.5-11.1-6.7-2-1.1-4.9-2.5-7-.9-1.7,1.3-1.5,3.1-.5,5a2.93,2.93,0,0,0-3,1.1c-1.7,2.2-.8,4.5,1,6.7-2.9-1-5.5-.8-6.1,2.2-.7,3.3,2.4,6,6.1,8-2.6,0-4.5.9-3.5,3.8,1,2.7,5.6,3.1,7.8,3.7,6.2,1.6,12.3,3.2,18.5,4.7a1.19,1.19,0,0,0,.6-2.3c-5.6-1.3-11.2-2.6-16.8-3.8-1-.2-7.2-1-7.5-2-.6-2.2,4.5-1.8,5.3-1.6,1.5.3,2.9.7,4.4,1.1a1,1,0,0,0,.5-1.9c-2.5-.8-11.7-3.1-12.2-6.4-1-6.9,5.6-1.9,6.9-1.2,2,1.1,4,2.3,6,3.4,1,.6,1.9-.9.9-1.6-2.1-1.5-4.3-2.9-6.4-4.5-.7-.5-1.4-1.1-2-1.6-1.9-1.3-1.7-3.1.5-5.3a2.2,2.2,0,0,1,.8.1,71.36,71.36,0,0,0,8.2,7.4.92.92,0,0,0,1.3-1.3,36.46,36.46,0,0,0-8.2-7.5,1.55,1.55,0,0,1-.3-.6l3.9-3.3c.6.4,1.3.8,1.9,1.2,3.6,2.5,6.8,5.1,11.1,6a.83.83,0,0,0,1-1,48.29,48.29,0,0,1-2.6-9.4c-.1-.9-.2-1.9-.3-2.8,2.1-1,3.4-.8,4,.6.9.9,1.3,3.1,1.7,4.2,1.2,3.8,1.9,7.1,5,9.8.7.6,1.7-.4,1.1-1h0Z" transform="translate(0 0.04)" fill="#fff"/><path d="M270.2,181.8c0-.5-.7-.7-1.1-.6a34.82,34.82,0,0,0-6.5,1.9c3.3-2.9,6.5-6.7,4.1-9-1.2-1.2-3-.9-4.9,0,2.1-2.5,3.2-5,.8-6.6-1.8-1.3-3.9-.2-5.5.9a46.87,46.87,0,0,0-4.7,4.3c-1,.9-5.5,6.1-6.6,6.1-2.5-.2-.6-10.6-1-12.5-.4-1.7-1.1-2.9-2.9-2.8-2.2,0-3,2.1-3.8,3.8-1.8,4-1.9,12.4-5.7,14.9a.65.65,0,0,0,.7,1.1c4.6-2.4,3.3-8.3,5.7-12.3.3-2.2,1.8-3.2,4.5-2.8v1.7c.4,2.3-.9,4.3-1.2,6.5-.2,1.5-.3,2.8.9,3.9,2.8,2.6,6.1-2.1,7.9-3.7,1.5-1.3,2.9-2.7,4.4-4,1.8-1.6,3.3-4.8,4.7-1.8,1.2,2.5-.5,3-2.3,4.8l-4.2,4.5c-.6.7.3,1.5,1,1a47,47,0,0,1,5.4-3.7c1.9-1.2,2.5-2.5,3.7,0s-.3,2.7-2.2,4.5c-1.5,1.4-3,2.8-4.4,4.2a.76.76,0,0,0,.9,1.2c1.7-.9,11.7-6.4,10.3-1.5-1,3.5-7.9,4.4-10.9,5.7-.8.3-.4,1.7.4,1.6s7.8-1.4,8-.9c1.8,3.1-6.3,5.2-7.4,5.6-3.6,1.5-10.8,2.6-13.2,5.3.6-.6-.2-1.7-.9-1.2-.1,0-.3.2-.4.3a.81.81,0,0,0-.4.9c.9,4.1,12.4-2.2,14.5-3,4-1.6,12.4-3.4,10.7-9.3a1,1,0,0,0-.9-.7,28.86,28.86,0,0,0-2.9.4c3.6-1.6,6.4-3.8,5.6-8.5h0Z" transform="translate(0 0.04)" fill="#fff"/><path d="M107.1,298.2c-6.1-4.5-11.7-9.7-17.8-14.2-4-2.9-9.8-6.1-14.9-5.1-.1,0-.1.2,0,.2,3.4,2.1,6.8,3.5,9.9,6.1,2.7,2.3,5.4,4.6,8.1,6.8,4.1,3.3,9.1,6.7,14.5,6.4.2,0,.2-.2,0-.3h0Z" transform="translate(0 0.04)" fill="#fff"/><path d="M92.3,326a100.64,100.64,0,0,0-12.1-14.7c-.3-.3-.6.1-.4.4a160.58,160.58,0,0,1,12,15.5c3.4,5,5.8,10.7,9.2,15.7a.3.3,0,0,0,.5-.2c-1.7-5.9-5.6-11.6-9.1-16.7h-.1Z" transform="translate(0 0.04)" fill="#fff"/><path d="M93,332.9c-.2-.3-.6.1-.4.4a49.11,49.11,0,0,1,3.8,5.5c1,1.7,1.7,3.7,2.8,5.3.1.2.4,0,.4-.2-.7-4-4-8.1-6.6-11.1h0Z" transform="translate(0 0.04)" fill="#fff"/><path d="M203.4,321.8c-1.5,1.5-2.8,3.2-4.4,4.6-.9.8-4.3,4.5-5.4,4.1-.6-.2-.9.7-.4,1,1.6,1,4.5-1.2,5.8-2.1a21.54,21.54,0,0,0,6.2-6.2,1.08,1.08,0,0,0-1.7-1.3h0Z" transform="translate(0 0.04)" fill="#fff"/><path d="M215.4,338.2a25.77,25.77,0,0,1-5.8-15.8,67.17,67.17,0,0,1,2.1-19.4.41.41,0,0,0-.8-.2,52.89,52.89,0,0,0-2.6,22.3c.5,4.9,1.8,11.1,6.6,13.4.3.1.6-.2.4-.4h0Z" transform="translate(0 0.04)" fill="#fff"/><path d="M214.7,330.6a13.71,13.71,0,0,1-.8-3.5.3.3,0,0,0-.6,0c0,2.1.5,5.2,2.2,6.6.2.1.5,0,.4-.2-.3-1-.9-1.9-1.3-2.9h.1Z" transform="translate(0 0.04)" fill="#fff"/><path d="M98.6,287.8c-3.6-3.4-6.7-6.9-8-11.9s-.2-10.2-.2-15.3c0-.1-.2-.1-.2,0-1.7,9.9-1.9,21.8,8.1,27.5.2.1.4-.1.2-.3h.1Z" transform="translate(0 0.04)" fill="#fff"/><path d="M102.9,287.7c-4.4-5.1-8.2-9.8-9.4-16.6,0-.2-.5-.2-.4,0,.7,6.4,3.7,13.6,9.6,16.8.2.1.4-.1.2-.3h0Z" transform="translate(0 0.04)" fill="#fff"/><path d="M184.9,242.2c0-.1-.2,0-.2,0a75.61,75.61,0,0,1,4.5,22,16.78,16.78,0,0,1-3,10.8,24.93,24.93,0,0,0-3.7,6.8c0,.2.2.3.3.1,3.1-6.2,7.7-9.5,7.6-17,0-7.9-2.8-15.6-5.6-22.8h0Z" transform="translate(0 0.04)" fill="#fff"/><path d="M185.1,267.4c-1.8,6.8-5.4,12.1-8.6,18.1-.1.3.2.5.4.3,5.1-4.4,7.6-11.9,8.7-18.3,0-.3-.4-.5-.5-.1Z" transform="translate(0 0.04)" fill="#fff"/><path d="M235.8,200.6c-1.9,4.2-7.1,7-10.8,9.6a90,90,0,0,1-9.3,5.8c-8.2,4.3-16.3,6.2-25.4,7.2-.2,0-.3.4,0,.4,9.2,1.3,18.8-2.7,26.7-7.1a128.52,128.52,0,0,0,13.1-8.6c2.6-1.9,6.1-3.6,6.3-7.1a.26.26,0,0,0-.5-.1h0Z" transform="translate(0 0.04)" fill="#fff"/><path d="M233.2,200.5c-1.3.9-2.4,2.1-3.6,3.1a37.23,37.23,0,0,1-4.7,3.4c-.3.2,0,.6.3.5,1.5-1,3-2,4.4-3.1a16.68,16.68,0,0,0,3.8-3.7c0-.1,0-.3-.2-.2Z" transform="translate(0 0.04)" fill="#fff"/><path d="M125.5,221.1c-2.2-1-4.3-1.6-6-3.5s-2.8-4.4-4-6.7c-.1-.2-.6,0-.5.2,1.4,3.9,5.1,11.5,10.4,10.3.2,0,.2-.3,0-.4h0Z" transform="translate(0 0.04)" fill="#fff"/><path d="M78.3,345.1c-8.6-5.4-16.1-11-21.5-19.8-5.6-9-9.3-21.4-4-31.4,0-.2-.2-.3-.3-.2-5.8,9.3-2.6,21.2,2.3,30.3s13.4,17.9,23.5,21.2c.1,0,.2-.1,0-.2h0Z" transform="translate(0 0.04)" fill="#fff"/><path d="M246.3,335.7c-4,1.7-7.7,3.8-11.9,5.3s-8.4,2.2-12.5,3.4c-.4.1-.3.8.1.7,8.1-.2,18-4.1,24.5-8.9.3-.2.1-.7-.2-.6h0Z" transform="translate(0 0.04)" fill="#fff"/><path d="M230.4,282.3c-.2-.5-.9,0-.7.4,4.9,11.4,5.8,22.5,5.9,34.7a.3.3,0,0,0,.6,0c2.6-11.7-.6-24.7-5.8-35.2h0Z" transform="translate(0 0.04)" fill="#fff"/><path d="M194.6,325.1l-.6.3h0l.6-.3Z" transform="translate(0 0.04)" fill="#fff"/><path d="M37.5,205.9c-3.8,5.4-8.8,16.1-4.5,22.4a.34.34,0,0,0,.6-.3c-1.9-7.5.9-15.3,4.9-21.6.4-.6-.6-1.2-1-.6h0Z" transform="translate(0 0.04)" fill="#fff"/><path d="M37.1,218.2c0-.5-.7-.7-.8-.2-.8,2.9-1.4,7.2.3,9.9a.38.38,0,0,0,.7-.2c0-1.5-.5-2.9-.6-4.4a22,22,0,0,1,.4-5.1Z" transform="translate(0 0.04)" fill="#fff"/><path d="M209,143.1a4,4,0,0,0-4.4-3.7c-2.6.2-4.2,2.5-5.5,4.6-.2.4.3.8.6.5,1.2-1.4,2.5-3,4.4-3.3,3.5-.6,3.6,3.3,2.5,5.6-1.8,3.8-5.4,4.7-9,5.9-.3.1-.2.5,0,.6,5.5.6,12.1-4.1,11.3-10h0Z" transform="translate(0 0.04)" fill="#fff"/><path d="M177.2,78.8c-12.8-2.9-13-22.6-12.7-32.6,0-.4-.6-.4-.7,0-1.2,10.6-.7,31.1,13.2,33.4.5,0,.7-.7.2-.8Z" transform="translate(0 0.04)" fill="#fff"/><path d="M181.4,78.7c-1.9-3.3-4.2-6.2-5.8-9.6a54.72,54.72,0,0,1-4-11.8c0-.3-.6-.2-.6,0,1.1,7.5,4.1,16.5,9.8,21.7a.36.36,0,0,0,.6-.4h0Z" transform="translate(0 0.04)" fill="#fff"/><path d="M81.6,61A29.31,29.31,0,0,0,75,81.7c-1.1,4-1.9,8.3-.4,12.1.2.4.7.3.7-.1.4-5.1.8-9.8,2.3-14.7,1.3-4.2,2.9-8.3,3.7-12.7,0-.5-.6-.9-.9-.4a65,65,0,0,0-3.7,9.9A45,45,0,0,1,82,61.1c.1-.2-.2-.5-.4-.3h0Z" transform="translate(0 0.04)" fill="#fff"/><path d="M192.5,73c-3.8-4.7-6.5-9.1-7-15.3,0-.4-.7-.4-.7,0,.2,5.8,2.4,12.2,7.1,15.8a.43.43,0,0,0,.6-.6h0Z" transform="translate(0 0.04)" fill="#fff"/><path d="M194.8,71.2a2.77,2.77,0,0,0,.1.9c0,.2.2,0,.3,0v-.9a.2.2,0,1,0-.4,0Z" transform="translate(0 0.04)" fill="#fff"/><path d="M159.8,128.9c-3.3-5.1-14.3-3.6-16.6,1.8,0,.1,0,.3.2.2,2.7-1.5,4.9-3.2,8.1-3.4,3-.2,5.2,1.2,7.9,1.9.3,0,.5-.2.4-.5Z" transform="translate(0 0.04)" fill="#fff"/><path d="M78.7,129.2a.36.36,0,0,0,.6.4c2.1-2.8,5.2-5,8.8-4.8,3.1.2,5.2,2,7.6,3.8.2.2.6-.1.5-.4-3.1-7.7-14.6-5.5-17.5,1.1h0Z" transform="translate(0 0.04)" fill="#fff"/><path d="M100.2,294.7c-.9-1.7-1.9-3.8-4.1-3.7-.4,0-.7.7-.2.9,2.1,1,3,4.3,4,6.2s1.9,4.6,3.6,6.2a.73.73,0,0,0,1.2-.7c-.5-3-2.9-6.3-4.4-8.9h-.1Z" transform="translate(0 0.04)" fill="#fff"/><path d="M90.9,305c-.3-1.4-2.4-.8-2.1.6a56.87,56.87,0,0,1,1.3,8.1,51.78,51.78,0,0,1-6.7-5.7,1,1,0,0,0-1.6,1.2c1.7,2.6,4.4,6.1,7.6,6.9h.3a10.47,10.47,0,0,1,1.1.8,1.05,1.05,0,0,0,1.6-.9,65.29,65.29,0,0,0-1.5-10.8h0Z" transform="translate(0 0.04)" fill="#fff"/><path d="M208.7,301.1a1.06,1.06,0,0,0-1.2-.2.49.49,0,0,0-.3.1,1,1,0,0,0-.2,1.4c0,1.6-1.7,4.3-2.2,5.6l-1.2,3a34.1,34.1,0,0,1-2-7.6c-.2-1.1-2-.8-2,.3a14.44,14.44,0,0,0,1.4,6.2,36.11,36.11,0,0,0,1.7,4.6c.5,1,1.7.5,2-.3,1.1-2.7,2.3-5.4,3.3-8.2.6-1.6,2.1-3.5.6-5h0Z" transform="translate(0 0.04)" fill="#fff"/><path d="M102.9,337.5c-.9,0-1,1.1-.4,1.6,1.7,1.2,3.7,1.7,5.4,2.9,2.7,2,3.3,5.1,3.3,8.3a25.84,25.84,0,0,1-4.6,14.7,21.78,21.78,0,0,1-6.1,6c-1.8,1.1-4.1,2.1-6.3,1.6-3-.7-3.4-3.5-3.3-6.2.2-3.9,1.1-6.5-1.5-10.1a.88.88,0,0,0-1.5.9,12.75,12.75,0,0,1,.6,8.6,9,9,0,0,0-.4,4,6.9,6.9,0,0,0,4.2,4.9c6,2.5,12.2-2.7,15.7-7.1,6.4-8.2,10.6-29.3-5.2-29.9h0Z" transform="translate(0 0.04)" fill="#fff"/><path d="M106.1,341.4c-.3-.5-1.1,0-.8.5,2.3,4.9,2.1,9.7.5,14.8a.28.28,0,0,0,.5.2c2.9-4.7,2.5-10.8-.1-15.5h-.1Z" transform="translate(0 0.04)" fill="#fff"/><path d="M4.8,250.7Z" transform="translate(0 0.04)" fill="#fff"/><path d="M124.4,202.6a11,11,0,0,1-1.6,4.7,35.15,35.15,0,0,1-3.1,3.5c-.3.4,0,1.2.5,1,3.5-1.3,5.5-5.7,5.8-9.1a.8.8,0,0,0-1.6,0h0Z" transform="translate(0 0.04)" fill="#fff"/><path d="M169.9,202.8a5.31,5.31,0,0,1-3.9-5.5c0-.9-1.4-1.2-1.6-.3-.9,3.4,1.9,7.1,5.3,7.6,1.1.2,1.3-1.6.3-1.9h0Z" transform="translate(0 0.04)" fill="#fff"/></svg>