<svg id="Layer_1" data-name="Layer 1" xmlns="http://www.w3.org/2000/svg" viewBox="0 0 253.43 299.28"><path d="M103.27,158.05a29.92,29.92,0,0,1-5.4.12c-4.42-.35-19-5.08-14.28-13.27,6.4-11.11,17.21,5.89,19,10.86.27.76.47,1.53.71,2.3h0Zm46.83,1c.13-.35.24-.72.37-1.08a33.92,33.92,0,0,1,7.64-12.72q17.07-5.9,6.44,10.8c-3.51,3.34-9,3.81-14.45,3Zm54.73-.51c-2.43,11.63-4.86,18.89-12.33,28.69-6.06,8-12.25,16.09-17.7,24.46-2.73,4.19-5.1,8.4-6.29,13.3-1.65,6.77,1,13.06-8.2,16.61C156,243.25,150,243.53,144,243.45c-1.46-24.76-2.79-53.65,4.13-78.08,12.42,1,30.64-4.45,27.45-19.12-4.57-21-24.14-6.15-29.61,5.72-.83,1.8-1.59,3.66-2.29,5.55a40.32,40.32,0,0,1-6.89-2.88,42.61,42.61,0,0,1-5-3.26c9.29-8.47,13-19.36,3.6-30.35-7.68-9-19-2.87-21.43,8.27-1.74,7.91,2,15.71,7.91,22a43.45,43.45,0,0,1-12.36,5.53c-4.88-16.69-13-27.06-26.74-20.15-8,4-7,15.14-1.8,21.11,6,6.89,15,8.11,24,6.55,2.48,11.56,2.42,23.68,3,35.42l2.28,42.66a89.76,89.76,0,0,1-11.89-1.74c-6.07-1.35-7.32-1.19-9.81-7.69-1.65-4.3-1.4-8.93-3.59-13.17-5.26-10.19-16-17.51-22.37-27.22-7-10.66-13.89-23.6-16.55-36.13C41.85,136.69,48.22,115.6,59,99.18c15.7-23.88,39.83-35.83,68-38,25.7-2,51.93,11.49,66.18,33.09,12.72,19.29,16.24,42.25,11.64,64.3h0ZM165.6,273.12q-3.21,6.76-9.94,5.69l-10,.58c-5.67.33-11.34.67-17,.92-4.46.2-43.34,1.5-36.87-7.38a3.37,3.37,0,0,0,.26-.44c12,2.7,29.19,2,34.44,2.09S152,276,165.38,273l.22.16h0Zm-31.7,18.53a27.49,27.49,0,0,1-8.31,1.15,8.88,8.88,0,0,1-3.64-.28c-.94-.46-.21.15-.83-.9a12.4,12.4,0,0,1-1-4.32c7.42-.2,13.76-.73,16.44-.9-.22,2.2-.77,4.56-2.63,5.26h0Zm31.74-24.87-7.71,1c-3.23.29-6.48.4-9.72.48-7.24.18-14.5-.07-21.74-.14-5.85-.06-11.69-.14-17.53-.44-1.65-.08-23.62-.75-21-7.3,9.38,4.46,26.56,2.63,34.67,2.94,13.8.52,31.77,3.14,45.37-1.34l-2.3,4.83h0ZM129,251.68c10.41-.09,21-.59,31.35-1.45a35.54,35.54,0,0,0,6.86-1c6.34,6.43-12.19,7.78-16.66,8-7.06.28-14.12.12-21.19-.11-6.49-.21-13-.4-19.47-.81-4.39-.27-27.44-3.05-19.7-8,.81.22,1.68.41,2.65.58A208.56,208.56,0,0,0,129,251.67h0Zm-2.59-96.09a47.85,47.85,0,0,0,15.14,8.47c-7.18,24.76-5.5,54.71-4,79.2-3.1-.12-6-.24-8.5-.22-3.92,0-8,0-12.17-.19-.26-10.63.74-51.56-5.78-79.95a58.36,58.36,0,0,0,15.36-7.31h0Zm-6.24-23.15q1.29-7.86,8.75-9.09a10,10,0,0,1,3.74,10.8c.18,5-2.12,9.38-5.73,13-4.19-4.23-7.42-9.47-6.77-14.75h0ZM78.08,67.55c-31.73,19.89-50.75,63.78-37.42,99.86a145,145,0,0,0,17,33.33c3.73,5.29,8,9.9,12.34,14.72,6.42,7.21,8.22,12.78,10.63,21.51,1,3.61,2.07,6.1,3.66,7.89-2.76,3.09-3.83,7.43-1.55,11.18-5.61,7.27-3.12,11.71,2.9,14.41-9.29,13.9,10.2,16.8,28,16.91.31,2.75.69,5.72,1.83,8,1.78,3.59,6.57,4,10.12,3.91,4-.06,9.61-.43,13.08-2.54,3.29-2,4.07-6.54,4.36-10.4,10.21.24,25.73,1,30.86-5.48,3.15-4,1.65-7.66-1.23-10.48,4.93-2.66,6.85-6.83,2.82-13.29,2.25-3.48.93-7.82-2.7-11.55a14.36,14.36,0,0,0,1.93-3c2.31-4.84.94-10.14,2.14-15.23,1.82-7.73,6.9-11.68,11.06-17.87,6.16-9.15,14.71-18,19.53-27.87,15.8-32.28,9.3-77.27-15.86-102.82C161,47.67,114.65,44.63,78.07,67.56h0Z" transform="translate(0 -0.01)" fill="#fff"/><path d="M246.82,71.74c-9.33,4.23-18.88,8.14-27.24,14.14-4.48,3.22-.17,10.72,4.36,7.46,8.36-6,17.91-9.92,27.24-14.14,5.06-2.29.67-9.74-4.36-7.46Z" transform="translate(0 -0.01)" fill="#fff"/><path d="M184.11,51.52c6.4-8.21,11.32-17.14,16.39-26.19,2.72-4.86-4.75-9.23-7.47-4.37-4.68,8.36-9.12,16.86-15,24.44-3.38,4.34,2.69,10.5,6.11,6.12h0Z" transform="translate(0 -0.01)" fill="#fff"/><path d="M129.37,33.39q1-14.59.93-29.21c0-5.56-8.67-5.57-8.65,0q.07,14.63-.93,29.21c-.38,5.55,8.26,5.53,8.65,0Z" transform="translate(0 -0.01)" fill="#fff"/><path d="M68.51,51.41c3.08,4.6,10.57.28,7.47-4.36-5.84-8.72-12.46-17.35-16.2-27.23-2-5.15-10.31-2.92-8.34,2.3C55.48,32.8,62.2,42,68.51,51.42h0Z" transform="translate(0 -0.01)" fill="#fff"/><path d="M32.76,85.08A123.19,123.19,0,0,0,5.18,69.88C0,67.81-2.23,76.17,2.88,78.21A115.32,115.32,0,0,1,28.39,92.54c4.48,3.3,8.8-4.2,4.36-7.46h0Z" transform="translate(0 -0.01)" fill="#fff"/><path d="M98.25,78.52c-20.17,5.88-38.39,27.57-41.2,48.28-.55,4.08,5.69,5.85,6.25,1.73C65.8,110,81.79,90.08,100,84.78c4-1.17,2.3-7.43-1.72-6.25h0Z" transform="translate(0 -0.01)" fill="#fff"/><path d="M102.29,89.65c-6.19.87-12,5.16-15.75,10-2.52,3.26,2,7.89,4.59,4.59,3.18-4.11,7.64-7.61,12.89-8.35,4.11-.58,2.36-6.83-1.72-6.25h0Z" transform="translate(0 -0.01)" fill="#fff"/></svg>