<svg xmlns="http://www.w3.org/2000/svg" viewBox="0 0 298.91 240.53"><g id="OBJECTS"><path d="M182.28,225.8V374.19a23.9,23.9,0,0,0,23.89,23.89H298a88.35,88.35,0,0,0,96.78,0h62.54a23.89,23.89,0,0,0,23.88-23.89V225.8Zm264.15,6.35a7.6,7.6,0,1,1-7.6,7.6A7.59,7.59,0,0,1,446.43,232.15Zm-210,19.37V372.83H221.09V247.53c0-9.54,19.22-16.51,22.78-13.24S236.46,244.54,236.46,251.52Zm109.35,139A77.46,77.46,0,1,1,423.27,313,77.46,77.46,0,0,1,345.81,390.48ZM465.42,370H432V351.57h33.42Z" transform="translate(-182.28 -171.97)" fill="#58595b"/><path d="M457.31,201.59h-1.39V182H406.19v19.41C394.09,200,384.35,172,384.35,172h-78s-10.81,29.62-22.78,29.62h-.19V183.18H233.62v18.41H206.17a23.86,23.86,0,0,0-23.46,19.65h298A23.84,23.84,0,0,0,457.31,201.59Zm-80,3.61H318.09V182.8h59.24Z" transform="translate(-182.28 -171.97)" fill="#58595b"/><path d="M346.11,272.74A40.92,40.92,0,1,0,387,313.66,41,41,0,0,0,346.11,272.74Z" transform="translate(-182.28 -171.97)" fill="#58595b"/><path d="M345.81,257.78A55.25,55.25,0,1,0,401.06,313,55.24,55.24,0,0,0,345.81,257.78Zm.3,100.5a44.63,44.63,0,1,1,44.63-44.62A44.68,44.68,0,0,1,346.11,358.28Z" transform="translate(-182.28 -171.97)" fill="#58595b"/></g></svg>