<svg id="Layer_1" data-name="Layer 1" xmlns="http://www.w3.org/2000/svg" viewBox="0 0 864 1083.38">

    <title>risi icons1</title>
    <rect class="cls-1" x="158.65" y="563.09" width="87.29" height="201.28" />
    <rect class="cls-2" x="284.62" y="483.67" width="87.29" height="280.69" />
    <rect class="cls-3" x="410.42" y="590.47" width="87.29" height="173.89" />
    <rect class="cls-4" x="534.16" y="535.7" width="87.29" height="228.66" />
    <rect class="cls-5" x="658.42" y="434.38" width="87.29" height="329.99" />
    <polygon class="cls-6"
        points="175.08 536.96 337.85 405.51 463.65 550.31 736.81 334.65 727.91 325.07 463.65 527.71 337.85 386 160.19 529.77 175.08 536.96" />
    <polygon class="cls-6"
        points="741.28 351.08 725.73 335.51 710.18 319.94 731.44 314.26 752.7 308.57 746.99 329.83 741.28 351.08" />
    <rect class="cls-7" x="-85.42" y="603.82" width="390.57" height="20.88"
        transform="translate(724.13 504.39) rotate(90)" />
    <rect class="cls-7" x="99.43" y="788.67" width="656.55" height="20.88" />
</svg>