<svg id="Layer_1" data-name="Layer 1" xmlns="http://www.w3.org/2000/svg" viewBox="0 0 271.44 243.49"><polyline points="9.94 241.99 9.94 205.09 58.04 205.09 58.04 241.99 9.94 241.99" fill="#fff"/><path d="M11.3,240.7H56.8V206.4H11.3v34.3m46.8,2.7H10a1.32,1.32,0,0,1-1.3-1.3v-37a1.32,1.32,0,0,1,1.3-1.3H58.1a1.32,1.32,0,0,1,1.3,1.3v37a1.32,1.32,0,0,1-1.3,1.3" transform="translate(-0.06 -0.01)"/><polyline points="80.94 241.99 80.94 170.69 129.14 170.69 129.14 241.99 80.94 241.99" fill="#aed3ef"/><path d="M82.4,240.7h45.5V172H82.4v68.7m46.8,2.7H81a1.32,1.32,0,0,1-1.3-1.3V170.8a1.32,1.32,0,0,1,1.3-1.3h48.2a1.32,1.32,0,0,1,1.3,1.3v71.3a1.32,1.32,0,0,1-1.3,1.3" transform="translate(-0.06 -0.01)"/><polyline points="221.94 237.99 221.94 91.69 270.14 91.69 270.14 237.99 221.94 237.99" fill="#aed3ef"/><path d="M223.4,235.2h45.5V94.4H223.4V235.2m46.8,5.5H222c-.7,0-1.3-1.2-1.3-2.7V91.7c0-1.5.6-2.7,1.3-2.7h48.2c.7,0,1.3,1.2,1.3,2.7V238c0,1.5-.6,2.7-1.3,2.7" transform="translate(-0.06 -0.01)"/><polyline points="151.44 241.99 151.44 128.29 199.64 128.29 199.64 241.99 151.44 241.99" fill="#fff"/><path d="M152.9,240.7h45.5v-111H152.9v111m46.8,2.7H151.5a1.32,1.32,0,0,1-1.3-1.3V128.4a1.32,1.32,0,0,1,1.3-1.3h48.2a1.32,1.32,0,0,1,1.3,1.3V242.1a1.32,1.32,0,0,1-1.3,1.3" transform="translate(-0.06 -0.01)"/><path d="M1.6,179.7a1.51,1.51,0,0,1-1.5-1.4,1.84,1.84,0,0,1,1.1-2.2c46.7-14.2,71.4-27.8,117.4-59A465.4,465.4,0,0,0,236.4.7a1.53,1.53,0,0,1,2.3-.3A2.11,2.11,0,0,1,239,3c-31.4,45-73.6,86.7-118.7,117.3C76,150.3,49.8,165.2,2.1,179.6H1.7Z" transform="translate(-0.06 -0.01)" fill="#fff"/><path d="M22.3,238.2H22a43.23,43.23,0,0,1-7.6-7.2.42.42,0,1,1,.6-.6,41.53,41.53,0,0,0,7.5,7c.2.1.2.4,0,.6l-.4.2h.2Z" transform="translate(-0.06 -0.01)"/><path d="M32.5,238.1h-.3c-6.3-5.5-12.4-11.3-18.1-17.3-.2-.2-.2-.5,0-.6s.5-.2.6,0a209,209,0,0,0,18.1,17.1.38.38,0,0,1,0,.6l-.3.2Z" transform="translate(-0.06 -0.01)"/><path d="M42.1,238.2h-.3c-8.4-8.2-16.9-16.5-25-24.8-.2-.2-.2-.5,0-.6s.5-.2.6,0c8.1,8.3,16.5,16.6,25,24.7.2.2.2.5,0,.6h-.3Z" transform="translate(-0.06 -0.01)"/><path d="M51.6,237.6h-.3L23.5,210.8c-.2-.2-.2-.5,0-.6s.5-.2.6,0l27.8,26.7c.2.2.2.5,0,.6h-.3" transform="translate(-0.06 -0.01)"/><path d="M53.5,229.5h-.3c-6.3-6.7-13-13.1-19.8-19.1a.42.42,0,0,1,.6-.6c6.8,6.1,13.5,12.5,19.9,19.1.2.2.2.5,0,.6h-.3" transform="translate(-0.06 -0.01)"/><path d="M52.9,218.8h-.3a103.45,103.45,0,0,0-8.7-8.8.42.42,0,1,1,.6-.6c3,2.8,6,5.7,8.8,8.8.2.2.2.5,0,.6H53" transform="translate(-0.06 -0.01)"/><path d="M198.4,240.7h-4v-5.5c-.2-4.7,0-9.3,0-14a114.26,114.26,0,0,1-.3-11.7c.1-5.8-.8-11.5-.9-17.2,0-9.9-.5-19.8-.4-29.7,0-5.7.4-11.5.6-17.2.2-5.1.2-10.3.8-15.4v-.4h4.1v28.1c0,3.1-.2,6.1,0,9.2v73.7" transform="translate(-0.06 -0.01)" fill="#dededd"/><path d="M197.3,243.2a2.62,2.62,0,0,1-2.6-1.7,1.88,1.88,0,0,1-.2-.8h4V169.8c.2,5.8.5,11.7.8,17.5a133.88,133.88,0,0,0,.6,15.5c.4,4.3.2,8.5.2,12.8.3,5.3,0,10.5,0,15.8,0,2.1,0,4.2.1,6.4.2,2,.4,4.8-2,5.5h-.7m1.1-85.5V129.7h-4.1a2.31,2.31,0,0,1,2.3-2,2.56,2.56,0,0,1,2.4,3.5c-.4,6.2-.2,12.3-.5,18.5,0,2.7-.2,5.4-.3,8.1" transform="translate(-0.06 -0.01)"/><path d="M127.9,240.7h-4.4v-.3h0a27.48,27.48,0,0,0,.2-4,76,76,0,0,1-.9-10.7c-.2-3.5,0-7.1.1-10.6,0-2.4-.3-4.7-.2-7.1.4-11.9.3-23.8.3-35.7v-.4h4.8v68.7" transform="translate(-0.06 -0.01)" fill="#96b8d6"/><path d="M126.4,243.2a2.83,2.83,0,0,1-2.9-2.5h4.4V172.4a48.64,48.64,0,0,1,0,5.4c0,5.3,0,10.7.3,16,.1,6.6-.6,13.2-.1,19.7-.2,8,0,18.4.9,24.1,0,1.6.5,3.4-.7,4.7a2.36,2.36,0,0,1-1.9.8m1.4-71.2H123a2.55,2.55,0,0,1,2.5-2.1,2.17,2.17,0,0,1,2.2,1.5,1.27,1.27,0,0,0,.1.6" transform="translate(-0.06 -0.01)"/><path d="M54.3,243.5a2.77,2.77,0,0,1-.9-.1h1.7c-.3,0-.6.1-.9.1" transform="translate(-0.06 -0.01)" fill="#dededd"/><path d="M56.8,240.7H51.6v-3.1H52c.2-.3.2-.6,0-.7l-.4-.3v-2c0-2.3,0-4.5-.1-6.8.6.6,1.1,1.2,1.7,1.7h.6a.38.38,0,0,0,0-.6l-2.4-2.4c0-3-.2-6.1-.3-9.1.5.5.9,1,1.4,1.5h.6c.2-.1.2-.4,0-.6-.7-.7-1.4-1.5-2-2.2v-9.5h5.3c0,5.9.3,11.8.4,17.7v16.6" transform="translate(-0.06 -0.01)" fill="#dededd"/><path d="M55.2,243.4H53.5a2.2,2.2,0,0,1-1.6-1.5,4.51,4.51,0,0,1-.3-1.1h5.2V224.2c0,2.9.1,5.8.2,8.7v6c0,1.1.4,2.3-.3,3.3a2.55,2.55,0,0,1-1.5,1.2m1.2-37H51.1a2.6,2.6,0,1,1,5.2,0" transform="translate(-0.06 -0.01)"/><path d="M51.6,237.6h0v-1.1l.4.3c.2.2.2.5,0,.6h-.3" transform="translate(-0.06 -0.01)"/><path d="M53.5,229.5h-.3c-.6-.7-1.1-1.3-1.7-1.9v-1.3l2.4,2.4c.2.2.2.5,0,.6h-.3" transform="translate(-0.06 -0.01)"/><path d="M52.9,218.8h-.3a10.7,10.7,0,0,0-1.4-1.6v-1.3a20.89,20.89,0,0,1,2,2.2c.2.2.2.5,0,.6h-.3" transform="translate(-0.06 -0.01)"/></svg>