<svg id="Layer_1" data-name="Layer 1" xmlns="http://www.w3.org/2000/svg" viewBox="0 0 348.76 277.07"><path d="M7.58,130H75.67l22-70.32h19.28L155,182.25,169,136.44l9.67-6.47h36.43l22-70.32h19.32l22,70.32h63.29s25.09-56.68-18.74-99.3c0,0-36.29-39.27-91.38-28.94,0,0-29.43,1.29-57.19,27.86,0,0-41.86-45.68-111.11-22.53,0,0-47,14.07-60.87,65.34C2.33,72.4-5.5,97,7.59,130Z" transform="translate(-0.01 0)" fill="#fff"/><path d="M15.4,147.55H83l9.64-6.49L107.1,95.27l38.09,122.61h19.28l22-70.34h35.94l9.64-6.49L246,95.26l14.48,45.79,9.64,6.49h63.28s-25.17,43.31-60.74,69c0,0-52.61,41.2-98.52,60.49,0,0-65.42-27.73-118.2-78.18,0,0-25.68-23.78-40.5-51.36Z" transform="translate(-0.01 0)" fill="#f5a1af"/></svg>