<svg id="Layer_1" data-name="Layer 1" xmlns="http://www.w3.org/2000/svg" viewBox="0 0 314.68 231.93"><path d="M139.4,26.1c1.5,5.8,4.5,8,7.3,7.1,2.9-.6,4.7-4,3.5-9.6-1.3-5.9-8.3-11.1-8.3-11.1s-3.7,8.1-2.5,13.7h0Z" transform="translate(0 0.03)" fill="#fff" fill-rule="evenodd"/><path d="M134.3,5.4,104.8,58a5.51,5.51,0,0,0-7,2.6L90.5,74a12.25,12.25,0,0,0-10.9,6.1l-57,101.3-8.4-4.5a3.37,3.37,0,0,0-4.6,1.5,3.26,3.26,0,0,0,1.2,4.6l7.7,4.4-9,15.8-7.4-4.5L0,202.8l36.8,21.4,2.2-3.9-7.3-4.2,9.2-16.2,7.6,4.1a3.58,3.58,0,1,0,3.6-6.2l-8.3-4.3,57-101.7a12,12,0,0,0-.5-12.4L108,66.2a6.36,6.36,0,0,0-1.1-7.2L136.5,6.6a1.63,1.63,0,0,0-.6-1.7,1.63,1.63,0,0,0-1.7.6h0Z" transform="translate(0 0.03)" fill="#fff" fill-rule="evenodd"/><path d="M93.3,99.8,64.5,150.9l-2.7-1.6-3-1.5-7.6-4.1L80,92.6a7.59,7.59,0,0,1,13.3,7.3h0Z" transform="translate(0 0.03)" fill="#6fc9f2" fill-rule="evenodd"/><path d="M214.7,33.6c1.5,5.8,4.5,8,7.3,7.1,2.9-.6,4.7-4,3.5-9.6-1.3-5.9-8.3-11.1-8.3-11.1s-3.7,8.1-2.5,13.7h0Z" transform="translate(0 0.03)" fill="#fff" fill-rule="evenodd"/><path d="M209.6,13,180.1,65.6a5.51,5.51,0,0,0-7,2.6l-7.3,13.4a12.25,12.25,0,0,0-10.9,6.1L98,189.1l-8.4-4.5a3.37,3.37,0,0,0-4.6,1.5,3.26,3.26,0,0,0,1.2,4.6l7.7,4.4-9,15.8-7.4-4.5-2.1,4.1,36.8,21.4,2.2-3.9-7.3-4.2,9.2-16.2,7.6,4.1a3.58,3.58,0,1,0,3.6-6.2l-8.3-4.3,57-101.7a12,12,0,0,0-.5-12.4l7.7-13.2a6.36,6.36,0,0,0-1.1-7.2l29.5-52.6a1.63,1.63,0,0,0-.6-1.7,1.63,1.63,0,0,0-1.7.6h.1Z" transform="translate(0 0.03)" fill="#fff" fill-rule="evenodd"/><path d="M172.1,97.4l-28.8,51.1-2.7-1.6-3-1.5-7.6-4.1,28.8-51.1a7.59,7.59,0,0,1,13.3,7.3h0Z" transform="translate(0 0.03)" fill="#fff" fill-rule="evenodd"/><path d="M168.6,99.8l-28.8,51.1-2.7-1.6-3-1.5-7.6-4.1,28.8-51.1a7.59,7.59,0,0,1,13.3,7.3h0Z" transform="translate(0 0.03)" fill="#6fc9f2" fill-rule="evenodd"/><path d="M303.5,21.2c1.5,5.8,4.5,8,7.3,7.1,2.9-.6,4.7-4,3.5-9.6C313,12.8,306,7.6,306,7.6s-3.7,8.1-2.5,13.7h0Z" transform="translate(0 0.03)" fill="#fff" fill-rule="evenodd"/><path d="M298.3.6,268.8,53.2a5.51,5.51,0,0,0-7,2.6l-7.3,13.4a12.25,12.25,0,0,0-10.9,6.1L186.7,176.7l-8.4-4.5a3.37,3.37,0,0,0-4.6,1.5,3.26,3.26,0,0,0,1.2,4.6l7.7,4.4-9,15.8-7.4-4.5-2.1,4.1,36.8,21.4,2.2-3.9-7.3-4.2,9.2-16.2,7.6,4.1a3.58,3.58,0,1,0,3.6-6.2l-8.3-4.3,57-101.7a12,12,0,0,0-.5-12.4l7.7-13.2a6.36,6.36,0,0,0-1.1-7.2L300.6,1.7A1.63,1.63,0,0,0,300,0a1.63,1.63,0,0,0-1.7.6Z" transform="translate(0 0.03)" fill="#fff" fill-rule="evenodd"/><path d="M257.4,95l-28.8,51.1-2.7-1.6-3-1.5-7.6-4.1,28.8-51.1a7.59,7.59,0,1,1,13.3,7.3h0Z" transform="translate(0 0.03)" fill="#6fc9f2" fill-rule="evenodd"/></svg>