<svg id="Layer_1" data-name="Layer 1" xmlns="http://www.w3.org/2000/svg" viewBox="0 0 287.43 275"><path d="M287,39.4h0c1.8,11.5-2.2,17.7-8.4,19-6.2.4-11.9-4-14.1-15.9s6.6-27.4,6.6-27.4S284.8,27,287,39.4Z" fill="#6fc9f2" fill-rule="evenodd"/><polygon points="68.6 275 68.6 275 75.2 268.4 61.4 257.3 94.2 222 53.1 189.2 20.4 224.2 6.6 213.1 0 220.2 68.6 275 68.6 275" fill="#fff" fill-rule="evenodd"/><polygon points="43.3 176 46.4 172.4 56.2 180.4 183.5 45.1 184 45.1 225.9 37.1 260.4 0.4 260.9 0 262.2 4.4 229.9 40.2 229 81.8 101.3 217.1 109.6 224.2 106.6 227.7 53.1 183.9 43.3 176 43.3 176" fill="#fff" fill-rule="evenodd"/><polygon points="165.4 71.2 165.4 71.2 184.8 86.7 181.3 90.2 162.3 74.7 155.7 81.8 165.8 90.6 162.7 94.2 152.1 85.8 145 92.9 156.1 101.7 152.5 104.8 141.9 96.4 135.8 103 154.3 118.5 151.2 122 132.2 106.6 125.6 113.6 136.2 122 133.1 125.6 122.5 116.7 115.4 124.3 126 132.7 122.9 136.6 112.3 127.8 103.9 136.6 122.9 151.7 119.8 155.2 100.8 139.7 95.5 145.5 105.7 153.4 102.2 157 92.4 149 85.3 156.1 95.5 164 92 167.6 82.2 159.6 60.1 183.5 97.7 214 224.2 80 225.1 42 186.6 49.1 165.4 71.2 165.4 71.2" fill="#6fc9f2" fill-rule="evenodd"/></svg>