<svg id="Layer_1" data-name="Layer 1" xmlns="http://www.w3.org/2000/svg" viewBox="0 0 283.86 254.76"><path d="M163.32,106.93a15.4,15.4,0,0,0-4.22-11.45c-5-5-9.3-8.77-9-13.57h-54c-.38,5.59-3.38,9.31-7.23,12.43-4.44,3.6-5.81,8.42-6.67,13.44h0a.81.81,0,0,0,0,.22v81.4a17.41,17.41,0,0,0,17.37,17.43h46.34a17.42,17.42,0,0,0,17.42-17.42V106.93Z" transform="translate(-0.68 -0.36)" fill="#1b5baa"/><path d="M102.93,49h39.72A13.91,13.91,0,0,1,156.56,62.9h0a13.91,13.91,0,0,1-13.91,13.91H102.93A13.91,13.91,0,0,1,89,62.9h0A13.91,13.91,0,0,1,102.93,49Z" transform="translate(-0.68 -0.36)" fill="#1b5baa"/><path d="M284.53,21.91c-4.26,4.68-8.37,9.5-12.8,14A295.07,295.07,0,0,0,247.1,64.59q-2.4,3.18-4.71,6.42-3.84,5.37-7.45,10.88-2.4,3.67-4.71,7.41-7.41,12-13.88,24.63c-1.33,2.59-2.61,5.2-3.93,7.8s-1.73,2.61-3.57.48Q199,110.83,189.27,99.45c-4.3-5-8.57-10-12.93-15-1.12-1.27-1.08-2.17.47-3.19l28.3,16c.69-.88,1.38-1.71,2-2.57q7.71-10.56,16-20.53,2.44-2.91,4.95-5.75,3.9-4.43,8-8.68c1.69-1.77,3.4-3.51,5.13-5.24A248.86,248.86,0,0,1,263,35.14c6.11-4.8,12.77-8.9,19.18-13.32C283.48,21,284.67,20.62,284.53,21.91Z" transform="translate(-0.68 -0.36)"/><path d="M284.53,21.91c-4.26,4.68-8.37,9.5-12.8,14A295.07,295.07,0,0,0,247.1,64.59q-2.4,3.18-4.71,6.42-3.84,5.37-7.45,10.88-2.4,3.67-4.71,7.41-7.41,12-13.88,24.63c-1.33,2.59-2.61,5.2-3.93,7.8s-1.73,2.61-3.57.48Q199,110.83,189.27,99.45c-4.3-5-8.57-10-12.93-15-1.12-1.27-1.08-2.17.47-3.19l28.3,16c.69-.88,1.38-1.71,2-2.57q7.71-10.56,16-20.53,2.44-2.91,4.95-5.75,3.9-4.43,8-8.68c1.69-1.77,3.4-3.51,5.13-5.24A248.86,248.86,0,0,1,263,35.14c6.11-4.8,12.77-8.9,19.18-13.32C283.48,21,284.67,20.62,284.53,21.91Z" transform="translate(-0.68 -0.36)" fill="#fff"/><path d="M245.58,78.58q-3.95,5.67-7.69,11.61a116.63,116.63,0,1,1-14-27.9q3.92-4.38,7.88-8.49a127.37,127.37,0,1,0,13.79,24.78ZM235.84,59.9q-4.08,4.26-8,8.68A114.79,114.79,0,0,1,234.68,82q3.6-5.52,7.45-10.88A128.77,128.77,0,0,0,235.84,59.9Z" transform="translate(-0.68 -0.36)" fill="#fff"/><rect x="121.49" y="206.05" width="8.68" height="18.72" transform="translate(-107.54 125.12) rotate(-38.58)" fill="#fff"/><path d="M126.74,228h0a1.05,1.05,0,0,1,.17-1.49l10-8a1.06,1.06,0,0,1,1.49.17h0a1.06,1.06,0,0,1-.17,1.49l-10,8A1.06,1.06,0,0,1,126.74,228Z" transform="translate(-0.68 -0.36)" fill="#fff"/><path d="M107.83,213.41h0a1,1,0,0,1,.17-1.48l18.09-14.44a1.06,1.06,0,0,1,1.49.17h0a1.06,1.06,0,0,1-.17,1.49l-18.09,14.43A1.05,1.05,0,0,1,107.83,213.41Z" transform="translate(-0.68 -0.36)" fill="#fff"/><path d="M86.52,178.14l24.06,30.16a1.36,1.36,0,0,0,1.91.22h0l9.42-7.51a1.38,1.38,0,0,0,.22-1.93L98.08,168.92a1.37,1.37,0,0,0-1.92-.22h0l-9.42,7.52a1.36,1.36,0,0,0-.22,1.91Zm5.23-2,3-2.39a2.79,2.79,0,0,1,3.92.44L107,184.52l-7.37,5.87L91.27,180a2.8,2.8,0,0,1,.46-3.92Z" transform="translate(-0.68 -0.36)" fill="#fff"/><path d="M89.39,173.88l-3.19-4a2.13,2.13,0,0,1,.34-3h0l.57-.46a2.13,2.13,0,0,1,3,.34h0l3.19,4a1.25,1.25,0,0,1-.2,1.76l-1.94,1.55A1.25,1.25,0,0,1,89.39,173.88Z" transform="translate(-0.68 -0.36)" fill="#fff"/><polygon points="85.8 164.29 84.34 165.58 68.74 145.89 67.8 141.83 85.8 164.29" fill="#fff"/><rect x="82.82" y="131.92" width="77.65" height="24.19" rx="12.09" fill="#2283c6"/><rect x="109.54" y="105.18" width="24.19" height="77.65" rx="12.09" fill="#2283c6"/><path d="M97.27,148h-1v2.75H92.58V139.83h5.26c3,0,5,1.59,5,4.12a3.67,3.67,0,0,1-2.06,3.44l2.3,3.37H99.14Zm.34-5.34H96.27v2.56h1.34c1,0,1.5-.48,1.5-1.28S98.62,142.67,97.61,142.67Z" transform="translate(-0.68 -0.36)" fill="#fff"/><path d="M113.58,139.83h3.69v10.93h-3.68Z" transform="translate(-0.68 -0.36)" fill="#fff"/><path d="M127.72,149.89l1.19-2.69a7.51,7.51,0,0,0,3.61,1c1,0,1.42-.22,1.42-.59,0-1.38-6-.27-6-4.34,0-2,1.7-3.69,5.09-3.69a8.66,8.66,0,0,1,4.12.95L136,143.2a6.82,6.82,0,0,0-3-.81c-1.07,0-1.42.31-1.42.69,0,1.31,6,.22,6,4.25,0,2-1.7,3.68-5.08,3.68A9.85,9.85,0,0,1,127.72,149.89Z" transform="translate(-0.68 -0.36)" fill="#fff"/><path d="M148,139.83h3.69v10.93H148Z" transform="translate(-0.68 -0.36)" fill="#fff"/></svg>