<?xml version="1.0" encoding="UTF-8"?>
<svg id="Layer_1" xmlns="http://www.w3.org/2000/svg" viewBox="0 0 253.43 299.29">
    <defs>
        <style>.cls-1{fill:#fff;}</style>
    </defs>
    <path class="cls-1"
        d="M103.27,158.05c-1.89,.2-3.71,.25-5.4,.12-4.42-.35-19-5.08-14.28-13.27,6.4-11.11,17.21,5.89,18.98,10.86,.27,.76,.47,1.53,.71,2.3h0Zm46.83,.99c.13-.35,.24-.72,.37-1.08,1.61-4.81,4.16-9.05,7.64-12.72,11.38-3.93,13.53-.33,6.44,10.8-3.51,3.34-9.02,3.81-14.45,3h0Zm54.73-.51c-2.43,11.63-4.86,18.89-12.33,28.69-6.06,7.96-12.25,16.09-17.7,24.46-2.73,4.19-5.1,8.4-6.29,13.3-1.65,6.77,.98,13.06-8.2,16.61-4.27,1.66-10.31,1.94-16.35,1.86-1.46-24.76-2.79-53.65,4.13-78.08,12.42,1.03,30.64-4.45,27.45-19.12-4.57-21.04-24.14-6.15-29.61,5.72-.83,1.8-1.59,3.66-2.29,5.55-2.68-.86-5.09-1.89-6.89-2.88-1.54-.84-3.27-1.95-5.02-3.26,9.29-8.47,13.04-19.36,3.6-30.35-7.68-8.95-18.99-2.87-21.43,8.27-1.74,7.91,2.01,15.71,7.91,22.04-3.74,2.47-8.06,4.36-12.36,5.53-4.88-16.69-13.04-27.06-26.74-20.15-7.96,4.01-6.97,15.14-1.8,21.11,5.96,6.89,15.03,8.11,24.03,6.55,2.48,11.56,2.42,23.68,3.05,35.42,.76,14.22,1.52,28.44,2.28,42.66-4.08-.35-8.1-.89-11.89-1.74-6.07-1.35-7.32-1.19-9.81-7.69-1.65-4.3-1.4-8.93-3.59-13.17-5.26-10.19-16.04-17.51-22.37-27.22-6.96-10.66-13.89-23.6-16.55-36.13-4.21-19.82,2.16-40.91,12.95-57.33,15.7-23.88,39.83-35.83,68.02-38.04,25.7-2.01,51.93,11.49,66.18,33.09,12.72,19.29,16.24,42.25,11.64,64.3h0Zm-39.23,114.59c-2.14,4.51-5.45,6.41-9.94,5.69-3.34,.2-6.67,.39-10.01,.58-5.67,.33-11.34,.67-17.01,.92-4.46,.2-43.34,1.5-36.87-7.38,.11-.15,.18-.29,.26-.44,12.03,2.7,29.19,2.04,34.44,2.09,5.25,.05,25.5,1.46,38.91-1.61,.07,.05,.14,.11,.22,.16h0Zm-31.7,18.53c-2.39,.89-5.8,1.11-8.31,1.15-1.1,.02-2.63,.2-3.64-.28-.94-.46-.21,.15-.83-.9-.58-.98-.85-2.73-1.03-4.32,7.42-.2,13.76-.73,16.44-.9-.22,2.2-.77,4.56-2.63,5.26h0Zm31.74-24.87c-2.57,.32-5.14,.64-7.71,.96-3.23,.29-6.48,.4-9.72,.48-7.24,.18-14.5-.07-21.74-.14-5.85-.06-11.69-.14-17.53-.44-1.65-.08-23.62-.75-21.05-7.3,9.38,4.46,26.56,2.63,34.67,2.94,13.8,.52,31.77,3.14,45.37-1.34-.77,1.61-1.53,3.22-2.3,4.83h0Zm-36.67-15.1c10.41-.09,20.98-.59,31.35-1.45,2.58-.21,4.85-.46,6.86-1.04,6.34,6.43-12.19,7.78-16.66,7.96-7.06,.28-14.12,.12-21.19-.11-6.49-.21-12.99-.4-19.47-.81-4.39-.27-27.44-3.05-19.7-8,.81,.22,1.68,.41,2.65,.58,11.66,2.05,24.33,2.91,36.16,2.86h0Zm-2.59-96.09c4.75,3.89,10.16,6.87,15.14,8.47-7.18,24.76-5.5,54.71-4.04,79.2-3.1-.12-6.04-.24-8.5-.22-3.92,.01-8.03-.02-12.17-.19-.26-10.63,.74-51.56-5.78-79.95,5.77-1.77,11.18-4.46,15.36-7.31h0Zm-6.24-23.15c.86-5.24,3.78-8.27,8.75-9.09,3.51,2.79,4.76,6.39,3.74,10.8,.18,4.97-2.12,9.38-5.73,13.04-4.19-4.23-7.42-9.47-6.77-14.75h0Zm-42.06-64.89c-31.73,19.89-50.75,63.78-37.42,99.86,4.33,11.72,9.81,23.1,17.01,33.33,3.73,5.29,8.05,9.9,12.34,14.72,6.42,7.21,8.22,12.78,10.63,21.51,1,3.61,2.07,6.1,3.66,7.89-2.76,3.09-3.83,7.43-1.55,11.18-5.61,7.27-3.12,11.71,2.9,14.41-9.29,13.9,10.2,16.8,27.99,16.91,.31,2.75,.69,5.72,1.83,8.01,1.78,3.59,6.57,3.96,10.12,3.91,3.99-.06,9.61-.43,13.08-2.54,3.29-2,4.07-6.54,4.36-10.4,10.21,.24,25.73,1.01,30.86-5.48,3.15-3.99,1.65-7.66-1.23-10.48,4.93-2.66,6.85-6.83,2.82-13.29,2.25-3.48,.93-7.82-2.7-11.55,.7-.85,1.35-1.81,1.93-3.03,2.31-4.84,.94-10.14,2.14-15.23,1.82-7.73,6.9-11.68,11.06-17.87,6.16-9.15,14.71-18.02,19.53-27.87,15.8-32.28,9.3-77.27-15.86-102.82-30.58-31.05-76.93-34.09-113.51-11.16h0Z" />
    <path class="cls-1"
        d="M246.82,71.74c-9.33,4.23-18.88,8.14-27.24,14.14-4.48,3.22-.17,10.72,4.36,7.46,8.36-6.01,17.91-9.92,27.24-14.14,5.06-2.29,.67-9.74-4.36-7.46h0Z" />
    <path class="cls-1"
        d="M184.11,51.52c6.4-8.21,11.32-17.14,16.39-26.19,2.72-4.86-4.75-9.23-7.47-4.37-4.68,8.36-9.12,16.86-15.04,24.44-3.38,4.34,2.69,10.5,6.11,6.12h0Z" />
    <path class="cls-1"
        d="M129.37,33.39c.67-9.73,.99-19.46,.93-29.21-.03-5.56-8.67-5.57-8.65,0,.05,9.75-.26,19.48-.93,29.21-.38,5.55,8.26,5.53,8.65,0h0Z" />
    <path class="cls-1"
        d="M68.51,51.41c3.08,4.6,10.57,.28,7.47-4.36-5.84-8.72-12.46-17.35-16.2-27.23-1.95-5.15-10.31-2.92-8.34,2.3,4.04,10.68,10.76,19.87,17.07,29.3h0Z" />
    <path class="cls-1"
        d="M32.76,85.08c-8.54-6.29-17.74-11.27-27.58-15.2-5.16-2.07-7.41,6.29-2.3,8.33,9.12,3.65,17.6,8.51,25.51,14.33,4.48,3.3,8.8-4.2,4.36-7.46h0Z" />
    <path class="cls-1"
        d="M98.25,78.52c-20.17,5.88-38.39,27.57-41.2,48.28-.55,4.08,5.69,5.85,6.25,1.73,2.5-18.51,18.49-38.45,36.67-43.75,4-1.17,2.3-7.43-1.72-6.25h0Z" />
    <path class="cls-1"
        d="M102.29,89.65c-6.19,.87-11.99,5.16-15.75,10.02-2.52,3.26,2.03,7.89,4.59,4.59,3.18-4.11,7.64-7.61,12.89-8.35,4.11-.58,2.36-6.83-1.72-6.25h0Z" />
</svg>