<?xml version="1.0" encoding="UTF-8"?><svg id="Layer_1" xmlns="http://www.w3.org/2000/svg" viewBox="0 0 271.6 243.5"><defs><style>.cls-1{fill:#fff;}.cls-2{fill:#aed3ef;}.cls-3{fill:#96b8d6;}.cls-4{fill:#dededd;}</style></defs><polyline class="cls-1" points="10 242 10 205.1 58.1 205.1 58.1 242 10 242"/><path d="M11.3,240.7H56.8v-34.3H11.3v34.3m46.8,2.7H10c-.7,0-1.3-.6-1.3-1.3v-37c0-.7,.6-1.3,1.3-1.3H58.1c.7,0,1.3,.6,1.3,1.3v37c0,.7-.6,1.3-1.3,1.3"/><polyline class="cls-2" points="81 242 81 170.7 129.2 170.7 129.2 242 81 242"/><path d="M82.4,240.7h45.5v-68.7h-45.5v68.7m46.8,2.7h-48.2c-.7,0-1.3-.6-1.3-1.3v-71.3c0-.7,.6-1.3,1.3-1.3h48.2c.7,0,1.3,.6,1.3,1.3v71.3c0,.7-.6,1.3-1.3,1.3"/><polyline class="cls-2" points="222 238 222 91.7 270.2 91.7 270.2 238 222 238"/><path d="M223.4,235.2h45.5V94.4h-45.5V235.2m46.8,5.5h-48.2c-.7,0-1.3-1.2-1.3-2.7V91.7c0-1.5,.6-2.7,1.3-2.7h48.2c.7,0,1.3,1.2,1.3,2.7V238c0,1.5-.6,2.7-1.3,2.7"/><polyline class="cls-1" points="151.5 242 151.5 128.3 199.7 128.3 199.7 242 151.5 242"/><path d="M152.9,240.7h45.5v-111h-45.5v111m46.8,2.7h-48.2c-.7,0-1.3-.6-1.3-1.3v-113.7c0-.7,.6-1.3,1.3-1.3h48.2c.7,0,1.3,.6,1.3,1.3v113.7c0,.7-.6,1.3-1.3,1.3"/><path class="cls-1" d="M1.6,179.7c-.7,0-1.4-.5-1.5-1.4-.2-1,.3-2,1.1-2.2,46.7-14.2,71.4-27.8,117.4-59C163.4,86.7,205.3,45.4,236.4,.7c.5-.8,1.6-.9,2.3-.3,.7,.6,.8,1.8,.3,2.6-31.4,45-73.6,86.7-118.7,117.3-44.3,30-70.5,44.9-118.2,59.3h-.4Z"/><path d="M22.3,238.2h-.3c-2.8-2.1-5.4-4.5-7.6-7.2-.2-.2-.1-.5,0-.6,.2-.2,.5-.1,.6,0,2.2,2.6,4.7,5,7.5,7,.2,.1,.2,.4,0,.6l-.4,.2h0Z"/><path d="M32.5,238.1h-.3c-6.3-5.5-12.4-11.3-18.1-17.3-.2-.2-.2-.5,0-.6,.2-.2,.5-.2,.6,0,5.7,6,11.7,11.8,18.1,17.1,.2,.2,.2,.4,0,.6l-.3,.2h0Z"/><path d="M42.1,238.2h-.3c-8.4-8.2-16.9-16.5-25-24.8-.2-.2-.2-.5,0-.6,.2-.2,.5-.2,.6,0,8.1,8.3,16.5,16.6,25,24.7,.2,.2,.2,.5,0,.6h-.3Z"/><path d="M51.6,237.6h-.3l-27.8-26.8c-.2-.2-.2-.5,0-.6,.2-.2,.5-.2,.6,0l27.8,26.7c.2,.2,.2,.5,0,.6h-.3"/><path d="M53.5,229.5h-.3c-6.3-6.7-13-13.1-19.8-19.1-.2-.2-.2-.4,0-.6,.2-.2,.4-.2,.6,0,6.8,6.1,13.5,12.5,19.9,19.1,.2,.2,.2,.5,0,.6h-.3"/><path d="M52.9,218.8h-.3c-2.8-3.2-5.7-6.1-8.7-8.8-.2-.2-.2-.4,0-.6,.2-.2,.4-.2,.6,0,3,2.8,6,5.7,8.8,8.8,.2,.2,.2,.5,0,.6h-.3"/><path class="cls-4" d="M198.4,240.7h-4c0-.3,0-.7,0-1,0-1.5,0-3,0-4.5-.2-4.7,0-9.3,0-14-.3-3.9-.4-7.8-.3-11.7,.1-5.8-.8-11.5-.9-17.2,0-9.9-.5-19.8-.4-29.7,0-5.7,.4-11.5,.6-17.2,.2-5.1,.2-10.3,.8-15.4,0-.1,0-.3,0-.4h4.1v28.1c0,3.1-.2,6.1,0,9.2,0,.9,0,1.9,0,2.8v70.9"/><path d="M197.3,243.2c-1.1,0-2.3-.6-2.6-1.7-.1-.2-.2-.5-.2-.8h4v-70.9c.2,5.8,.5,11.7,.8,17.5,0,5.2,0,10.3,.6,15.5,.4,4.3,.2,8.5,.2,12.8,.3,5.3,0,10.5,0,15.8,0,2.1,0,4.2,.1,6.4,.2,2,.4,4.8-2,5.5-.2,0-.5,0-.7,0m1.1-85.5v-28.1h-4.1c.3-1.4,1.3-2,2.3-2,1.5,0,3,1.3,2.4,3.5-.4,6.2-.2,12.3-.5,18.5,0,2.7-.2,5.4-.3,8.1"/><path class="cls-3" d="M127.9,240.7h-4.4c0,0,0-.2,0-.3h0c.1-1.4,.3-2.7,.2-4-.6-3.5-.8-7.1-.9-10.7-.2-3.5,0-7.1,.1-10.6,0-2.4-.3-4.7-.2-7.1,.4-11.9,.3-23.8,.3-35.7,0-.1,0-.3,0-.4h4.8c0,.1,0,.3,0,.4v68.3"/><path d="M126.4,243.2c-1.4,0-2.8-1-2.9-2.5h4.4v-68.3c.2,1.8,0,3.6,0,5.4,0,5.3,0,10.7,.3,16,.1,6.6-.6,13.2-.1,19.7-.2,8,0,18.4,.9,24.1,0,1.6,.5,3.4-.7,4.7-.5,.6-1.2,.8-1.9,.8m1.4-71.2h-4.8c.2-1.3,1.4-2.1,2.5-2.1s1.8,.5,2.2,1.5c0,.2,0,.4,.1,.6"/><path class="cls-4" d="M54.3,243.5c-.3,0-.6,0-.9-.1h1.7c-.3,0-.6,.1-.9,.1"/><path class="cls-4" d="M56.8,240.7h-5.2c0-.5,0-1,0-1.4,0-.6,0-1.1,0-1.7h.4c.2-.3,.2-.6,0-.7l-.4-.3c0-.7,0-1.3,0-2,0-2.3,0-4.5-.1-6.8,.6,.6,1.1,1.2,1.7,1.7h.6c.2-.2,.2-.4,0-.6-.8-.8-1.6-1.6-2.4-2.4,0-3-.2-6.1-.3-9.1,.5,.5,.9,1,1.4,1.5h.6c.2-.1,.2-.4,0-.6-.7-.7-1.4-1.5-2-2.2,0-3.2,0-6.3,0-9.5h5.3c0,5.9,.3,11.8,.4,17.7v16.6"/><path d="M55.2,243.4h-1.7c-.7-.2-1.4-.7-1.6-1.5-.2-.4-.2-.7-.3-1.1h5.2v-16.6c0,2.9,.1,5.8,.2,8.7,0,2,0,4,0,6,0,1.1,.4,2.3-.3,3.3-.3,.6-.9,1-1.5,1.2m1.2-37h-5.3c0-1.7,1.3-2.6,2.6-2.6s2.6,.9,2.6,2.6"/><path d="M51.6,237.6h0v-1.1l.4,.3c.2,.2,.2,.5,0,.6h-.3"/><path d="M53.5,229.5h-.3c-.6-.7-1.1-1.3-1.7-1.9,0-.4,0-.9,0-1.3,.8,.8,1.6,1.6,2.4,2.4,.2,.2,.2,.5,0,.6h-.3"/><path d="M52.9,218.8h-.3c-.4-.6-.9-1.1-1.4-1.6,0-.4,0-.9,0-1.3,.7,.7,1.4,1.4,2,2.2,.2,.2,.2,.5,0,.6h-.3"/></svg>