<?xml version="1.0" encoding="UTF-8"?>
<svg id="Layer_1" xmlns="http://www.w3.org/2000/svg" viewBox="0 0 252.39 200.37">
    <defs>
        <style>.cls-1{fill:#fff;}.cls-2{fill:#70caf2;}</style>
    </defs>
    <path class="cls-1"
        d="M54.75,93.83h0l15.92-50.93h13.96l27.58,88.79,10.09-33.18,7-4.68h26.38l15.92-50.93h14l15.92,50.93h45.84c3.1-8.7,5.03-18.1,5.03-27.82C252.39,29.49,219.77,0,179.77,0c-20.95,0-40.37,8.38-53.59,21.13C112.99,8.38,93.97,0,72.99,0,32.99,0,0,29.49,0,66c0,9.72,2.33,19.12,5.44,27.82H54.75Z" />
    <path class="cls-2"
        d="M195.69,106.56h45.83c-30.68,56.97-115.34,93.82-115.34,93.82,0,0-84.25-36.85-114.94-93.82H60.17l6.98-4.7,10.49-33.16,27.58,88.8h13.96l15.92-50.94h26.03l6.98-4.7,10.09-33.16,10.49,33.16,6.98,4.7h0Z" />
</svg>