<?xml version="1.0" encoding="UTF-8"?><svg id="Layer_1" xmlns="http://www.w3.org/2000/svg" viewBox="0 0 314.6 231.8"><defs><style>.cls-1{fill:#6fc9f2;}.cls-1,.cls-2{fill-rule:evenodd;}.cls-2{fill:#fff;}</style></defs><path class="cls-2" d="M139.4,26.1c1.5,5.8,4.5,8,7.3,7.1,2.9-.6,4.7-4,3.5-9.6-1.3-5.9-8.3-11.1-8.3-11.1,0,0-3.7,8.1-2.5,13.7h0Z"/><path class="cls-2" d="M134.3,5.4l-29.5,52.6c-2.5-1.1-5.7,0-7,2.6l-7.3,13.4c-4.4-.1-8.7,2.2-10.9,6.1L22.6,181.4l-8.4-4.5c-1.5-.8-3.6-.4-4.6,1.5-1.1,1.6-.3,3.9,1.2,4.6l7.7,4.4-9,15.8-7.4-4.5-2.1,4.1,36.8,21.4,2.2-3.9-7.3-4.2,9.2-16.2,7.6,4.1c1.9,1,3.9,.3,4.9-1.3,1.1-1.6,.3-3.9-1.3-4.9l-8.3-4.3,57-101.7c2.2-3.9,1.9-8.8-.5-12.4l7.7-13.2c1.1-2.5,.8-5.3-1.1-7.2L136.5,6.6c.1-.7,0-1.2-.6-1.7-.7-.1-1.2,0-1.7,.6h0Z"/><path class="cls-1" d="M93.3,99.8l-28.8,51.1-2.7-1.6-3-1.5-7.6-4.1,28.8-51.1c2.2-3.9,6.9-5,10.3-3,3.8,1.9,5,6.6,3,10.3h0Z"/><path class="cls-2" d="M214.7,33.6c1.5,5.8,4.5,8,7.3,7.1,2.9-.6,4.7-4,3.5-9.6-1.3-5.9-8.3-11.1-8.3-11.1,0,0-3.7,8.1-2.5,13.7h0Z"/><path class="cls-2" d="M209.6,13l-29.5,52.6c-2.5-1.1-5.7,0-7,2.6l-7.3,13.4c-4.4-.1-8.7,2.2-10.9,6.1l-56.9,101.4-8.4-4.5c-1.5-.8-3.6-.4-4.6,1.5-1.1,1.6-.3,3.9,1.2,4.6l7.7,4.4-9,15.8-7.4-4.5-2.1,4.1,36.8,21.4,2.2-3.9-7.3-4.2,9.2-16.2,7.6,4.1c1.9,1,3.9,.3,4.9-1.3,1.1-1.6,.3-3.9-1.3-4.9l-8.3-4.3,57-101.7c2.2-3.9,1.9-8.8-.5-12.4l7.7-13.2c1.1-2.5,.8-5.3-1.1-7.2l29.5-52.6c.1-.7,0-1.2-.6-1.7-.7-.1-1.2,0-1.7,.6h0Z"/><path class="cls-2" d="M172.1,97.4l-28.8,51.1-2.7-1.6-3-1.5-7.6-4.1,28.8-51.1c2.2-3.9,6.9-5,10.3-3,3.8,1.9,5,6.6,3,10.3h0Z"/><path class="cls-1" d="M168.6,99.8l-28.8,51.1-2.7-1.6-3-1.5-7.6-4.1,28.8-51.1c2.2-3.9,6.9-5,10.3-3,3.8,1.9,5,6.6,3,10.3h0Z"/><path class="cls-2" d="M303.5,21.2c1.5,5.8,4.5,8,7.3,7.1,2.9-.6,4.7-4,3.5-9.6-1.3-5.9-8.3-11.1-8.3-11.1,0,0-3.7,8.1-2.5,13.7h0Z"/><path class="cls-2" d="M298.3,.6l-29.5,52.6c-2.5-1.1-5.7,0-7,2.6l-7.3,13.4c-4.4-.1-8.7,2.2-10.9,6.1l-56.9,101.4-8.4-4.5c-1.5-.8-3.6-.4-4.6,1.5-1.1,1.6-.3,3.9,1.2,4.6l7.7,4.4-9,15.8-7.4-4.5-2.1,4.1,36.8,21.4,2.2-3.9-7.3-4.2,9.2-16.2,7.6,4.1c1.9,1,3.9,.3,4.9-1.3,1.1-1.6,.3-3.9-1.3-4.9l-8.3-4.3,57-101.7c2.2-3.9,1.9-8.8-.5-12.4l7.7-13.2c1.1-2.5,.8-5.3-1.1-7.2L300.6,1.7c.1-.7,0-1.2-.6-1.7-.7-.1-1.2,0-1.7,.6h0Z"/><path class="cls-1" d="M257.4,95l-28.8,51.1-2.7-1.6-3-1.5-7.6-4.1,28.8-51.1c2.2-3.9,6.9-5,10.3-3,3.8,1.9,5,6.6,3,10.3h0Z"/></svg>