<svg id="Layer_1" data-name="Layer 1" xmlns="http://www.w3.org/2000/svg"
    viewBox="0 0 284.54 255.67">
<!--    <defs>-->
<!--        <style>.cls-1{fill:#1b5baa;}.cls-2{fill:#fff;}.cls-3{opacity:0.5;}.cls-4{fill:#29abe2;}-->
<!--        </style>-->
<!--    </defs>-->
    <title>risiIIIIIIIIII</title>
    <path class="cls-1"
        d="M201.05,159.1a15.39,15.39,0,0,0-4.22-11.45c-5.05-5-9.3-8.77-9-13.57h-54c-.38,5.59-3.38,9.31-7.23,12.43-4.44,3.6-5.81,8.42-6.67,13.44h0a1.55,1.55,0,0,0,0,.22v81.4A17.41,17.41,0,0,0,137.3,259h46.34a17.42,17.42,0,0,0,17.42-17.42V159.1Z"
        transform="translate(-37.73 -52.17)" />
    <rect class="cls-1" x="89.02" y="48.99" width="67.54" height="27.82" rx="13.91" />
    <path class="cls-2"
        d="M322.26,74.08c-4.26,4.68-8.37,9.5-12.8,14a295.5,295.5,0,0,0-24.63,28.68q-2.4,3.18-4.71,6.42-3.84,5.37-7.45,10.88-2.4,3.67-4.71,7.41-7.41,12-13.88,24.63c-1.33,2.59-2.61,5.2-3.93,7.8s-1.73,2.61-3.57.48Q236.77,163,227,151.62c-4.3-5-8.57-10-12.93-15-1.12-1.27-1.08-2.17.47-3.19,9.46,5.34,18.76,10.61,28.3,16,.69-.88,1.38-1.71,2-2.57q7.71-10.56,16-20.53,2.44-2.91,4.95-5.75,3.9-4.42,8-8.68c1.69-1.77,3.4-3.51,5.13-5.24a248.71,248.71,0,0,1,21.82-19.35c6.11-4.8,12.77-8.9,19.18-13.32C321.21,73.15,322.4,72.79,322.26,74.08Z"
        transform="translate(-37.73 -52.17)" />
    <path
        d="M322.26,74.08c-4.26,4.68-8.37,9.5-12.8,14a295.5,295.5,0,0,0-24.63,28.68q-2.4,3.18-4.71,6.42-3.84,5.37-7.45,10.88-2.4,3.67-4.71,7.41-7.41,12-13.88,24.63c-1.33,2.59-2.61,5.2-3.93,7.8s-1.73,2.61-3.57.48Q236.77,163,227,151.62c-4.3-5-8.57-10-12.93-15-1.12-1.27-1.08-2.17.47-3.19,9.46,5.34,18.76,10.61,28.3,16,.69-.88,1.38-1.71,2-2.57q7.71-10.56,16-20.53,2.44-2.91,4.95-5.75,3.9-4.42,8-8.68c1.69-1.77,3.4-3.51,5.13-5.24a248.71,248.71,0,0,1,21.82-19.35c6.11-4.8,12.77-8.9,19.18-13.32C321.21,73.15,322.4,72.79,322.26,74.08Z"
        transform="translate(-37.73 -52.17)" />
    <path class="cls-2"
        d="M283.53,130.68q-3.94,5.67-7.69,11.61a116.63,116.63,0,1,1-14-27.9q3.92-4.38,7.88-8.49a127.37,127.37,0,1,0,13.79,24.78Z"
        transform="translate(-37.73 -52.17)" />
    <path
        d="M278.92,106.71c-1.73,1.73-3.44,3.47-5.13,5.24q-4.07,4.26-8,8.68-2.5,2.84-4.95,5.75A108.42,108.42,0,0,1,268,141.49q2.31-3.74,4.71-7.41,3.61-5.52,7.45-10.88,2.31-3.24,4.71-6.42C283,113.34,281,110,278.92,106.71Z"
        transform="translate(-37.73 -52.17)" />
    <path
        d="M283.53,130.68q-3.94,5.67-7.69,11.61a116.63,116.63,0,1,1-14-27.9q3.92-4.38,7.88-8.49a127.37,127.37,0,1,0,13.79,24.78ZM273.79,112q-4.07,4.26-8,8.68a114.74,114.74,0,0,1,6.84,13.45q3.61-5.52,7.45-10.88A127.7,127.7,0,0,0,273.79,112Z"
        transform="translate(-37.73 -52.17)" />
    <rect x="154.19" y="263.23" width="18.72" height="8.68"
        transform="translate(18.65 510.12) rotate(-128.58)" />
    <rect x="169.21" y="268.03" width="2.12" height="14.9" rx="1.06"
        transform="translate(23.39 528.22) rotate(-128.58)" />
    <rect x="154.36" y="245.07" width="2.12" height="25.26" rx="1.06"
        transform="translate(13.17 487.74) rotate(-128.58)" />
    <path
        d="M124.25,230.31l24.06,30.16a1.36,1.36,0,0,0,1.92.21l9.42-7.51a1.38,1.38,0,0,0,.22-1.93l-24.06-30.15a1.37,1.37,0,0,0-1.93-.22l-9.42,7.52A1.36,1.36,0,0,0,124.25,230.31Zm5.23-2.05,3-2.39a2.79,2.79,0,0,1,3.92.44l8.28,10.38-7.37,5.87L129,232.19A2.79,2.79,0,0,1,129.48,228.26Z"
        transform="translate(-37.73 -52.17)" />
    <path
        d="M124.18,219.64h5.12a2.13,2.13,0,0,1,2.13,2.13v.73a2.13,2.13,0,0,1-2.13,2.13h-5.12a1.25,1.25,0,0,1-1.25-1.25v-2.49a1.25,1.25,0,0,1,1.25-1.25Z"
        transform="translate(-4.87 407.93) rotate(-128.58)" />
    <polygon points="86.48 164.65 85.02 165.94 69.42 146.25 68.48 142.19 86.48 164.65" />
    <g class="cls-3">
        <rect class="cls-4" x="83.5" y="132.28" width="77.65" height="24.19" rx="12.09" />
    </g>
    <g class="cls-3">
        <rect class="cls-4" x="121.23" y="184.44" width="77.65" height="24.19" rx="12.09"
            transform="translate(-74.22 304.42) rotate(-90)" />
    </g>
    <path
        d="M135,200.18h-1v2.75h-3.69V192h5.26c3.05,0,5,1.59,5,4.12a3.66,3.66,0,0,1-2.06,3.44l2.3,3.37h-3.94Zm.34-5.34H134v2.56h1.34c1,0,1.5-.48,1.5-1.28S136.35,194.84,135.34,194.84Z"
        transform="translate(-37.73 -52.17)" />
    <path d="M151.31,192H155v10.93h-3.68Z" transform="translate(-37.73 -52.17)" />
    <path
        d="M165.45,202.06l1.19-2.69a7.47,7.47,0,0,0,3.61,1c1,0,1.42-.22,1.42-.59,0-1.38-6-.27-6-4.34,0-2,1.7-3.69,5.09-3.69a8.69,8.69,0,0,1,4.12.95l-1.11,2.67a6.83,6.83,0,0,0-3-.81c-1.07,0-1.42.31-1.42.69,0,1.31,6,.22,6,4.25,0,2-1.7,3.68-5.08,3.68A9.85,9.85,0,0,1,165.45,202.06Z"
        transform="translate(-37.73 -52.17)" />
    <path d="M185.76,192h3.69v10.93h-3.69Z" transform="translate(-37.73 -52.17)" />
</svg>